<?xml version="1.0" standalone="no"?>
<!DOCTYPE svg PUBLIC "-//W3C//DTD SVG 1.1//EN" "http://www.w3.org/Graphics/SVG/1.1/DTD/svg11.dtd" >
<svg xmlns="http://www.w3.org/2000/svg" xmlns:xlink="http://www.w3.org/1999/xlink" version="1.1">
<metadata>
Created by FontForge 20190801 at Thu Nov 28 06:23:46 2019
 By Jimmy Wärting
Copyright (c) 2011 Canada Type. Designed by Patrick Griffin &#38; Bill Troop. All rights reserved. Pdf_X
</metadata>
<defs>
<font id="SemplicitaPro-Semibold" horiz-adv-x="1529" >
  <font-face 
    font-family="SemplicitaPro"
    font-weight="600"
    font-stretch="normal"
    units-per-em="2048"
    panose-1="2 0 7 3 0 0 0 0 0 0"
    ascent="1638"
    descent="-410"
    x-height="1032"
    cap-height="1550"
    bbox="-152 -575 2458 2138"
    underline-thickness="102"
    underline-position="-817"
    unicode-range="U+0020-FB04"
  />
<missing-glyph horiz-adv-x="748" 
d="M68 0v1365h544v-1365h-544zM136 68h408v1229h-408v-1229z" />
    <glyph glyph-name=".notdef" horiz-adv-x="748" 
d="M68 0v1365h544v-1365h-544zM136 68h408v1229h-408v-1229z" />
    <glyph glyph-name="glyph1" horiz-adv-x="0" 
 />
    <glyph glyph-name="glyph2" horiz-adv-x="682" 
 />
    <glyph glyph-name="space" unicode=" " horiz-adv-x="491" 
 />
    <glyph glyph-name="exclam" unicode="!" horiz-adv-x="571" 
d="M133 123q0 63 44.5 108t107.5 45q65 0 108 -44.5t43 -108.5q0 -59 -44 -105.5t-107 -46.5q-62 0 -107 47t-45 105zM145 1550h279l-39 -1101h-197z" />
    <glyph glyph-name="quotedbl" unicode="&#x22;" horiz-adv-x="919" 
d="M119 1559h278l-39 -615h-200zM524 1559h277l-39 -615h-199z" />
    <glyph glyph-name="numbersign" unicode="#" horiz-adv-x="1361" 
d="M111 449l4 200h235l27 205h-215l4 199h235l56 444l202 -16l-53 -428h230l55 444l205 -16l-56 -428h213l-2 -199h-235l-27 -205h211l-2 -200h-233l-60 -463l-198 26l53 437h-230l-59 -463l-199 26l54 437h-215zM555 649h229l27 205h-229z" />
    <glyph glyph-name="dollar" unicode="$" horiz-adv-x="1236" 
d="M88 178l137 189q102 -102 242 -144l76 469q-63 31 -109.5 57.5t-96.5 66t-81 80.5t-51.5 97.5t-20.5 120.5q0 95 41.5 174t109 129.5t151.5 78.5t173 28h19l39 235l180 -8l-43 -264q77 -29 134 -70t81 -69l-127 -195q-60 57 -127 96l-59 -368q193 -98 277.5 -203
t84.5 -254q0 -91 -29.5 -167.5t-78.5 -128t-115.5 -88t-138.5 -53.5t-148 -18l-37 -225l-180 8l39 238q-112 27 -202 80.5t-140 107.5zM459 1126q0 -55 33.5 -93t95.5 -72l53 327q-75 -7 -128.5 -49t-53.5 -113zM647 207q92 9 142.5 59.5t50.5 132.5q0 122 -129 205z" />
    <glyph glyph-name="percent" unicode="%" horiz-adv-x="1611" 
d="M90 1239q0 134 93.5 228t226.5 94t227 -94t94 -228q0 -133 -93.5 -226t-227.5 -93t-227 93t-93 226zM270 1239q0 -60 41 -101.5t101 -41.5t100.5 41.5t40.5 101.5t-40.5 102.5t-100.5 42.5t-101 -42.5t-41 -102.5zM393 10l635 1522l162 -66l-637 -1519zM881 297
q0 135 92.5 229.5t224.5 94.5q135 0 229.5 -94.5t94.5 -229.5q0 -133 -94.5 -226.5t-229.5 -93.5q-132 0 -224.5 93.5t-92.5 226.5zM1061 297q0 -61 40 -103t99 -42q61 0 101 42t40 103q0 62 -40 103.5t-101 41.5q-60 0 -99.5 -41.5t-39.5 -103.5z" />
    <glyph glyph-name="ampersand" unicode="&#x26;" horiz-adv-x="1548" 
d="M80 532q0 90 28 173t75.5 146t106.5 109.5t124 73.5q-31 47 -45 71.5t-26.5 65t-12.5 84.5q0 136 92.5 229t245.5 93q44 0 85.5 -9.5t70.5 -22t58.5 -31.5t45.5 -33t35.5 -32t23.5 -22l-141 -145q-102 96 -187 96q-49 0 -85.5 -30.5t-36.5 -87.5q0 -43 21.5 -81t68.5 -94
h553l-45 -194h-340l792 -891h-291l-188 229q-27 -41 -64.5 -80.5t-95 -81t-137.5 -67t-170 -25.5q-155 0 -284.5 75.5t-203 203t-73.5 278.5zM293 541q0 -107 52.5 -192t134 -128t173.5 -43q65 0 123 23t97 57.5t63.5 66.5t36.5 60l-432 494q-21 -5 -48 -18t-63.5 -41
t-66 -64t-50 -93t-20.5 -122z" />
    <glyph glyph-name="quotesingle" unicode="'" horiz-adv-x="516" 
d="M119 1559h278l-39 -615h-200z" />
    <glyph glyph-name="parenleft" unicode="(" horiz-adv-x="571" 
d="M109 569q0 324 54.5 622.5t139.5 520.5l191 -78q-62 -180 -115 -470.5t-53 -590.5q0 -265 42.5 -508t123.5 -526l-187 -76q-92 230 -144 517t-52 589z" />
    <glyph glyph-name="parenright" unicode=")" horiz-adv-x="571" 
d="M80 1634l190 78q85 -220 139 -518.5t54 -624.5q0 -305 -51 -591.5t-144 -514.5l-186 76q80 283 123 526.5t43 507.5q0 300 -53 590.5t-115 470.5z" />
    <glyph glyph-name="plus" unicode="+" horiz-adv-x="1380" 
d="M104 643v203h465v432h242v-432h465v-203h-465v-430h-242v430h-465z" />
    <glyph glyph-name="comma" unicode="," horiz-adv-x="557" 
d="M16 -225l170 475h258l-260 -475h-168z" />
    <glyph glyph-name="hyphen" unicode="-" horiz-adv-x="878" 
d="M135 401l27 201h581l-26 -201h-582z" />
    <glyph glyph-name="period" unicode="." horiz-adv-x="522" 
d="M109 123q0 63 44.5 107t106.5 44q65 0 108.5 -43.5t43.5 -107.5q0 -58 -44 -105t-108 -47q-60 0 -105.5 47.5t-45.5 104.5z" />
    <glyph glyph-name="slash" unicode="/" horiz-adv-x="1140" 
d="M68 -381l831 2060l174 -75l-831 -2046z" />
    <glyph glyph-name="zero" unicode="0" horiz-adv-x="1392" 
d="M125 766q0 75 5.5 146t22 152.5t42.5 151t70.5 135t102 111.5t140.5 73.5t184 27.5q102 0 186 -26.5t142.5 -71t103.5 -108.5t71.5 -132.5t43.5 -150.5t23 -155t6 -153q0 -78 -6 -151t-23.5 -155t-44.5 -151t-71.5 -133.5t-103 -109.5t-142 -72t-183.5 -27
q-101 0 -184 27.5t-141 73t-102.5 110.5t-70.5 134.5t-42.5 151.5t-22.5 153.5t-6 148.5zM383 766q0 -47 2.5 -94t11 -107.5t22.5 -112.5t38 -103.5t55.5 -88.5t78 -59.5t103.5 -22.5q59 0 107.5 23t80.5 59t56 88.5t37 103.5t21 112.5t10 107t2 94.5q0 51 -2.5 99.5
t-11 109t-22 112t-38 102t-56.5 86t-80 57.5t-106 22q-66 0 -118 -27.5t-84.5 -76.5t-54.5 -105.5t-33 -127.5t-15 -129t-4 -122z" />
    <glyph glyph-name="one" unicode="1" horiz-adv-x="811" 
d="M33 1346l585 235v-1589h-253v1270l-242 -109z" />
    <glyph glyph-name="two" unicode="2" horiz-adv-x="1271" 
d="M63 0v147q90 44 193 116.5t209 171t191.5 204.5t139.5 227t54 230q0 107 -66.5 182.5t-171.5 75.5q-101 0 -183.5 -50.5t-139.5 -117.5l-123 164q213 213 469 213q139 0 249.5 -62.5t170 -169t59.5 -235.5q0 -120 -60 -252t-159 -251t-200 -214t-210 -178l682 12v-213
h-1104z" />
    <glyph glyph-name="three" unicode="3" horiz-adv-x="1163" 
d="M49 135l107 178q39 -46 136.5 -91.5t209.5 -45.5q145 0 223 80.5t78 192.5q0 135 -111.5 230t-281.5 95q-15 0 -29 -1t-19 -1v148q16 -2 46 -2q144 0 235.5 73.5t91.5 177.5q0 78 -55.5 127.5t-153.5 49.5q-67 0 -138.5 -22t-115.5 -52l-75 178q56 40 156.5 76.5
t209.5 36.5q95 0 176 -32.5t134 -86.5t82.5 -121.5t29.5 -138.5q0 -91 -51.5 -178.5t-169.5 -149.5v-2q73 -30 129.5 -80t89.5 -109t49.5 -120t16.5 -121q0 -91 -37.5 -173.5t-106 -145.5t-172.5 -100.5t-229 -37.5q-90 0 -171 19t-137.5 48.5t-90.5 54t-56 46.5z" />
    <glyph glyph-name="four" unicode="4" horiz-adv-x="1343" 
d="M49 250v149l830 1205h155v-1143h219v-211h-219v-260h-254v260h-731zM340 461h455v665z" />
    <glyph glyph-name="five" unicode="5" horiz-adv-x="1183" 
d="M59 100l84 205q155 -121 334 -121q157 0 244.5 90.5t87.5 225.5q0 62 -19.5 115.5t-60 98.5t-112 71t-166.5 26q-122 0 -277 -49l205 770h659l-63 -207h-420l-96 -348q52 8 100 8q144 0 262 -61t188 -175t70 -260q0 -100 -34.5 -191.5t-100.5 -166.5t-175 -119.5
t-247 -44.5q-104 0 -207 26.5t-159.5 53t-96.5 53.5z" />
    <glyph glyph-name="six" unicode="6" horiz-adv-x="1300" 
d="M102 471q0 201 154.5 480t491.5 622l172 -154q-266 -266 -394 -475q95 33 193 33q132 0 241.5 -60.5t175.5 -176t66 -263.5q0 -101 -31.5 -185.5t-85 -143t-125 -100t-150.5 -60.5t-163 -19q-104 0 -201 34t-174 96.5t-123.5 159t-46.5 212.5zM360 477q0 -127 86 -212
t209 -85q125 0 204 86t79 209q0 124 -80 214.5t-207 90.5q-126 0 -208.5 -89t-82.5 -214z" />
    <glyph glyph-name="seven" unicode="7" horiz-adv-x="1179" 
d="M94 -18l711 1333h-709v215h1082l-801 -1548h-283z" />
    <glyph glyph-name="eight" unicode="8" horiz-adv-x="1267" 
d="M127 414q0 65 22 125t58.5 104.5t74 76t78.5 54.5q-92 45 -156.5 140t-64.5 216q0 123 71 224t185.5 156t245.5 55t242.5 -56t178 -156.5t66.5 -222.5q0 -123 -63.5 -218t-155.5 -136q94 -47 162 -136.5t68 -215.5q0 -125 -68.5 -230.5t-184.5 -166t-251 -60.5
q-136 0 -253 61t-186 164t-69 222zM381 430q0 -103 74 -179.5t178 -76.5q102 0 175 76t73 178t-72.5 177t-175.5 75q-104 0 -178 -74t-74 -176zM389 1114q0 -99 71 -173.5t175 -74.5q102 0 172 71.5t70 172.5t-70 173.5t-172 72.5q-103 0 -174.5 -72t-71.5 -170z" />
    <glyph glyph-name="nine" unicode="9" horiz-adv-x="1296" 
d="M94 1055q0 101 31.5 185.5t85 143t125 100t150.5 60.5t163 19q105 0 201 -31t173.5 -89.5t124 -152.5t46.5 -209q0 -432 -637 -1134l-174 155q1 1 30 33.5t43 48t47.5 54.5t55.5 65t55 67t57 74t51 71.5t48 72.5q-95 -33 -192 -33q-132 0 -242 60.5t-176 176t-66 263.5z
M358 1057q0 -124 80 -214.5t207 -90.5q126 0 208.5 89t82.5 214q0 127 -86 212t-209 85q-125 0 -204 -86t-79 -209z" />
    <glyph glyph-name="colon" unicode=":" horiz-adv-x="573" 
d="M135 123q0 63 45 108t107 45q64 0 107.5 -44.5t43.5 -108.5q0 -58 -44.5 -105t-106.5 -47q-60 0 -106 47.5t-46 104.5zM135 791q0 64 45 108.5t107 44.5q64 0 107.5 -44t43.5 -109q0 -59 -44 -104.5t-107 -45.5q-61 0 -106.5 46t-45.5 104z" />
    <glyph glyph-name="semicolon" unicode=";" horiz-adv-x="602" 
d="M23 -225l170 475h260l-263 -475h-167zM170 793q0 63 45 107t107 44q65 0 108 -43.5t43 -107.5q0 -59 -43.5 -105.5t-107.5 -46.5q-60 0 -106 47t-46 105z" />
    <glyph glyph-name="less" unicode="&#x3c;" horiz-adv-x="1320" 
d="M92 690v139l993 592l111 -207l-788 -458l788 -498l-113 -201z" />
    <glyph glyph-name="equal" unicode="=" horiz-adv-x="1490" 
d="M154 389v209h1183v-209h-1183zM154 817v209h1183v-209h-1183z" />
    <glyph glyph-name="greater" unicode="&#x3e;" horiz-adv-x="1320" 
d="M125 301l788 459l-788 497l111 201l993 -633v-139l-993 -592z" />
    <glyph glyph-name="question" unicode="?" horiz-adv-x="993" 
d="M117 739q0 38 8 72t26 63t33.5 50.5t44 45.5t44 36.5t46.5 33.5t39 27q48 35 76 57t63 54.5t51.5 62.5t16.5 59q0 38 -27.5 68.5t-82.5 30.5q-15 0 -31 -3t-29 -7t-28 -11t-24.5 -12.5t-23.5 -14.5t-19.5 -13.5t-17.5 -14t-14 -10.5l-94 133q161 139 336 139
q73 0 132 -25.5t95 -66.5t55 -90t19 -100q0 -97 -69 -179.5t-205 -179.5q-42 -30 -63.5 -46.5t-53 -46t-46 -57.5t-14.5 -57q0 -49 35.5 -86t100.5 -37q80 0 157 55t117 111l121 -121q-21 -35 -58.5 -72.5t-89 -75t-121 -61.5t-139.5 -24q-66 0 -130.5 21t-117.5 59.5
t-85.5 99.5t-32.5 133zM319 127q0 60 44.5 103.5t105.5 43.5t104 -44t43 -103q0 -60 -43.5 -108t-103.5 -48q-61 0 -105.5 47.5t-44.5 108.5z" />
    <glyph glyph-name="at" unicode="@" horiz-adv-x="2101" 
d="M115 526q0 200 78 381.5t210.5 313t317.5 209t389 77.5q205 0 374.5 -64.5t282.5 -177.5t174.5 -268t61.5 -335q0 -78 -22.5 -159.5t-65.5 -161t-111 -149.5t-152 -123.5t-196 -84.5t-237 -31q-139 0 -248.5 36t-174.5 96t-98.5 132.5t-33.5 151.5q0 71 27 137.5t77 119
t127.5 84t171.5 31.5q144 0 246 -79v71q0 154 -219 154q-144 0 -269 -53l-71 151q198 94 358 94q95 0 167.5 -21.5t117.5 -58t73 -89.5t39 -109.5t11 -124.5v-328h-64q-31 62 -81.5 105.5t-106.5 63.5t-101.5 28t-87.5 8q-104 0 -161.5 -49t-57.5 -121q0 -94 95 -167
t266 -73q133 0 246.5 46.5t186.5 123t113.5 171.5t40.5 194q0 77 -20 157.5t-71.5 167.5t-128.5 154.5t-202.5 111.5t-281.5 44q-164 0 -311 -62t-253.5 -168.5t-168.5 -258t-62 -322.5q0 -145 64.5 -285t172.5 -245.5t258 -170.5t312 -65q82 0 137.5 3.5t140.5 22.5t167 56
l67 -166q-257 -107 -506 -107q-205 0 -391 77.5t-321 208.5t-215 313t-80 382z" />
    <glyph glyph-name="A" unicode="A" 
d="M-29 0l795 1614l790 -1614h-292l-142 303h-719l-139 -303h-293zM512 541h502l-223 481q-24 48 -27 74q-1 -6 -31 -74z" />
    <glyph glyph-name="B" unicode="B" horiz-adv-x="1314" 
d="M174 0v1550h367q122 0 222.5 -20.5t180.5 -63.5t125 -116.5t45 -173.5q0 -70 -22 -129t-59 -98.5t-72.5 -64t-75.5 -42.5q49 -12 95 -31.5t95 -53.5t84.5 -77t58.5 -105.5t23 -136.5q0 -198 -159.5 -318t-463.5 -120h-444zM436 238h230q147 0 222 62t75 165
q0 108 -82.5 174t-223.5 66h-221v-467zM436 930h123q133 0 206 47t73 143q0 95 -68 144t-180 49h-154v-383z" />
    <glyph glyph-name="C" unicode="C" horiz-adv-x="1560" 
d="M86 778q0 162 61.5 309t169 257t264.5 175.5t337 65.5q111 0 213 -25t171.5 -62.5t113.5 -70.5t67 -61l-140 -182q-81 79 -192.5 121.5t-232.5 42.5q-127 0 -233 -46.5t-175 -125t-107 -180t-38 -212.5q0 -161 74.5 -294t211 -211t307.5 -78q134 0 247.5 44t166.5 97
l121 -170q-216 -207 -547 -207q-184 0 -345.5 65t-273.5 175t-176.5 259t-64.5 314z" />
    <glyph glyph-name="D" unicode="D" horiz-adv-x="1556" 
d="M174 0v1550h449q140 0 265 -31.5t230 -96t181.5 -155.5t119.5 -217.5t43 -275.5q0 -242 -109.5 -418t-307 -266t-461.5 -90h-410zM436 238h182q120 0 219.5 30.5t178.5 93.5t123.5 170t44.5 248q0 239 -150 386t-385 147h-213v-1075z" />
    <glyph glyph-name="E" unicode="E" horiz-adv-x="1216" 
d="M174 2v1546h897v-237h-635v-369h512v-237h-512v-465h701v-238h-963z" />
    <glyph glyph-name="F" unicode="F" horiz-adv-x="1110" 
d="M174 0v1548h883v-237h-621v-377h502v-240h-502v-694h-262z" />
    <glyph glyph-name="G" unicode="G" horiz-adv-x="1740" 
d="M86 768q0 167 64.5 318t174.5 260.5t265.5 174t329.5 64.5q105 0 204.5 -21t164 -48t120.5 -61t76.5 -50.5t30.5 -26.5l-134 -196q-5 7 -23.5 23t-60 41.5t-92.5 47.5t-126.5 38t-155.5 16q-165 0 -293.5 -77t-197 -209t-68.5 -296q0 -82 24.5 -163.5t73.5 -153.5
t115.5 -127.5t156.5 -88t191 -32.5q197 0 333 111t150 280h-397v223h671q-2 -176 -45 -320t-114.5 -241.5t-169 -164t-205 -96.5t-225.5 -30q-231 0 -423.5 107t-303.5 292t-111 406z" />
    <glyph glyph-name="H" unicode="H" horiz-adv-x="1605" 
d="M174 0v1550h262v-641h733v641h263v-1550h-263v672h-733v-672h-262z" />
    <glyph glyph-name="I" unicode="I" horiz-adv-x="610" 
d="M174 0v1550h262v-1550h-262z" />
    <glyph glyph-name="J" unicode="J" horiz-adv-x="610" 
d="M-152 -305q84 28 136 55t92 63.5t60 90t29 124t9 175.5v1347h262v-1357q0 -112 -9.5 -195t-34 -153t-59.5 -120.5t-93 -96t-127.5 -81.5t-169.5 -75z" />
    <glyph glyph-name="K" unicode="K" horiz-adv-x="1460" 
d="M174 0v1550h262v-632l586 632h340l-746 -757l887 -793h-385l-682 627v-627h-262z" />
    <glyph glyph-name="L" unicode="L" horiz-adv-x="1118" 
d="M174 2v1548h262v-1310h649v-238h-911z" />
    <glyph glyph-name="M" unicode="M" horiz-adv-x="2019" 
d="M100 0l203 1591l680 -1122q23 -41 25 -59h2q2 22 26 59l680 1122l203 -1591h-281l-77 772q-4 28 -3.5 49.5t3.5 36.5q-11 -29 -45 -84l-506 -833l-506 833q-34 55 -45 84q4 -15 3.5 -36.5t-3.5 -49.5l-78 -772h-281z" />
    <glyph glyph-name="N" unicode="N" horiz-adv-x="1755" 
d="M172 0l2 1593l1151 -1061l-4 1018h262l-2 -1607l-1151 1038l4 -981h-262z" />
    <glyph glyph-name="O" unicode="O" horiz-adv-x="1857" 
d="M86 774q0 164 66.5 313.5t179.5 259t270 174t330 64.5t328 -62.5t267.5 -170.5t178.5 -260t66 -324q0 -162 -68 -310.5t-181 -256.5t-268 -172t-323 -64q-231 0 -426 109.5t-307.5 295.5t-112.5 404zM365 782q0 -112 44 -218.5t118 -186t177 -128t214 -48.5
q119 0 226 44.5t183.5 120.5t121 181.5t44.5 222.5q0 162 -76.5 295.5t-205 208t-279.5 74.5q-154 0 -284 -74.5t-206.5 -205t-76.5 -286.5z" />
    <glyph glyph-name="P" unicode="P" horiz-adv-x="1228" 
d="M174 0v1550h338q649 0 649 -495q0 -242 -154 -382.5t-458 -140.5h-113v-532h-262zM436 770h107q165 0 253.5 79t88.5 208q0 120 -77.5 187t-223.5 67h-148v-541z" />
    <glyph glyph-name="Q" unicode="Q" horiz-adv-x="1859" 
d="M86 774q0 164 66.5 313.5t179.5 259t270.5 174t331.5 64.5q230 0 422.5 -106t305 -294t112.5 -417q0 -162 -70 -312t-188 -261l301 -226l-189 -188l-299 285q-187 -101 -395 -101q-174 0 -331.5 64.5t-270.5 173.5t-179.5 258.5t-66.5 312.5zM367 782q0 -150 74 -284
t202 -215.5t277 -81.5q158 0 290.5 75.5t208.5 206.5t76 287q0 162 -77 295.5t-205.5 208t-278.5 74.5q-154 0 -284.5 -74.5t-206.5 -204.5t-76 -287z" />
    <glyph glyph-name="R" unicode="R" horiz-adv-x="1288" 
d="M174 0v1550h328q96 0 179.5 -10.5t174.5 -42t155 -82t106 -139t42 -205.5q0 -163 -114 -295t-291 -164l612 -612h-362l-527 573h-41v-573h-262zM436 801h103q165 0 255.5 73.5t90.5 182.5q0 254 -328 254h-121v-510z" />
    <glyph glyph-name="S" unicode="S" horiz-adv-x="1210" 
d="M51 184l139 189q71 -69 173.5 -119.5t224.5 -50.5t190 55.5t68 151.5q0 29 -4.5 54.5t-16 47.5t-22 39t-31.5 35t-35 29.5t-43.5 28t-45 24.5t-50.5 25.5l-51 25.5q-53 27 -85.5 44.5t-79 46.5t-75 53t-61.5 59t-51 70t-30.5 80.5t-12.5 96.5q0 79 28 147t76 116.5
t112 83.5t136.5 52t148.5 17q80 0 156.5 -21t129.5 -53t85 -56.5t49 -43.5l-127 -194q-135 135 -291 135q-94 0 -161.5 -43.5t-67.5 -126.5q0 -47 24 -85.5t64.5 -67t92.5 -55t110 -53.5t116 -57.5t110 -72.5t92.5 -93t64.5 -123.5t24 -160.5t-38 -168.5t-107 -143
t-175.5 -100t-234.5 -37.5q-152 0 -299.5 70t-218.5 149z" />
    <glyph glyph-name="T" unicode="T" horiz-adv-x="1243" 
d="M35 1311v237h1173v-237h-454v-1311h-262v1311h-457z" />
    <glyph glyph-name="U" unicode="U" horiz-adv-x="1585" 
d="M164 569v981h262v-837q0 -292 87 -404t323 -112q196 0 319 90v1263h262v-1364q-96 -100 -252.5 -160.5t-376.5 -60.5q-301 0 -462.5 152.5t-161.5 451.5z" />
    <glyph glyph-name="V" unicode="V" horiz-adv-x="1456" 
d="M-31 1550h293l463 -1040q9 -19 12 -72q3 45 13 72l442 1040h293l-756 -1632z" />
    <glyph glyph-name="W" unicode="W" horiz-adv-x="2193" 
d="M-16 1550h290l353 -948q9 -26 12 -80q3 55 14 80l447 1012l446 -1012q12 -30 15 -74q3 48 12 74l344 948h287l-609 -1626l-499 1061l-492 -1057z" />
    <glyph glyph-name="X" unicode="X" horiz-adv-x="1476" 
d="M-2 0l598 799l-557 751h328l378 -546l379 546h328l-569 -751l587 -799h-327l-406 594l-411 -594h-328z" />
    <glyph glyph-name="Y" unicode="Y" horiz-adv-x="1337" 
d="M-31 1550h293l397 -657q11 -19 13 -55q2 33 16 55l397 657h291l-577 -909v-641h-262v641z" />
    <glyph glyph-name="Z" unicode="Z" horiz-adv-x="1396" 
d="M-4 2l870 1309h-690v237h1149l-868 -1308h868v-238h-1329z" />
    <glyph glyph-name="bracketleft" unicode="[" horiz-adv-x="696" 
d="M156 -442v2121h469v-190h-258v-1747h258v-184h-469z" />
    <glyph glyph-name="backslash" unicode="\" horiz-adv-x="1144" 
d="M70 1606l174 73l831 -2060l-174 -63z" />
    <glyph glyph-name="bracketright" unicode="]" horiz-adv-x="696" 
d="M72 -252h252v1747h-252v184h469v-2121h-469v190z" />
    <glyph glyph-name="asciicircum" unicode="^" horiz-adv-x="1441" 
d="M154 827l464 840h201l467 -840h-282l-285 537l-285 -537h-280z" />
    <glyph glyph-name="underscore" unicode="_" horiz-adv-x="1320" 
d="M133 -100v200h1055v-200h-1055z" />
    <glyph glyph-name="grave" unicode="`" horiz-adv-x="753" 
d="M102 1528l205 149l344 -381l-155 -102z" />
    <glyph glyph-name="a" unicode="a" horiz-adv-x="1107" 
d="M53 336q0 141 111 239.5t295 98.5q86 0 169 -23t132 -69v120q0 78 -52 119t-176 41q-147 0 -288 -59l-74 176q176 84 389 84q101 0 176 -19.5t123.5 -53.5t78.5 -86.5t42 -113t12 -139.5v-542q-63 -59 -188.5 -99.5t-267.5 -40.5q-98 0 -179.5 21.5t-136.5 57.5t-93 84
t-55.5 99t-17.5 105zM305 326q0 -66 60 -115t172 -49q63 0 124 15.5t99 39.5v180q-36 35 -105.5 61.5t-140.5 26.5q-97 0 -153 -47t-56 -112z" />
    <glyph glyph-name="b" unicode="b" horiz-adv-x="1230" 
d="M129 98v1581h242v-708q139 92 309 92q113 0 204.5 -45t149 -121t88.5 -172t31 -201q0 -132 -48 -239t-129 -175t-185 -104.5t-220 -36.5q-109 0 -228 32t-214 97zM371 219q73 -49 196 -49q154 0 242 95.5t88 252.5q0 143 -72 242.5t-198 99.5q-71 0 -144.5 -31
t-111.5 -69v-541z" />
    <glyph glyph-name="c" unicode="c" horiz-adv-x="1064" 
d="M74 516q0 153 77 279.5t205 197t277 70.5q116 0 215 -41.5t137 -79.5l-92 -182q-21 19 -49.5 38.5t-85.5 40.5t-115 21q-132 0 -225.5 -93t-93.5 -253q0 -151 92 -248.5t227 -97.5q107 0 181.5 38t113.5 81l78 -168q-23 -23 -52.5 -44t-79.5 -47.5t-122 -42.5t-154 -16
q-74 0 -149.5 23.5t-144 71t-122.5 112t-86 153t-32 187.5z" />
    <glyph glyph-name="d" unicode="d" horiz-adv-x="1226" 
d="M76 504q0 248 151 403.5t389 155.5q143 0 240 -70v686h242v-1581q-202 -129 -453 -129q-111 0 -212 35t-181.5 100t-128 168.5t-47.5 231.5zM330 504q0 -147 92.5 -240.5t222.5 -93.5q127 0 211 53v547q-37 41 -102 66.5t-131 25.5q-133 0 -213 -98.5t-80 -259.5z" />
    <glyph glyph-name="e" unicode="e" horiz-adv-x="1193" 
d="M76 510q0 159 67 284.5t190.5 197t282.5 71.5q122 0 220 -43.5t159 -118t93 -170.5t32 -205v-100h-794q11 -107 106 -181.5t256 -74.5q181 0 320 109l75 -173q-54 -48 -172 -92.5t-264 -44.5q-257 0 -414 148t-157 393zM328 621h540q-5 107 -73 179t-183 72
q-110 0 -190.5 -67t-93.5 -184z" />
    <glyph glyph-name="f" unicode="f" horiz-adv-x="761" 
d="M49 836v196h174v203q0 204 94 315q54 62 137.5 92.5t174.5 30.5q68 0 133.5 -17t96 -32t44.5 -25l-94 -186q-79 55 -168 55t-133.5 -59.5t-44.5 -169.5v-207h260v-196h-260v-836h-240v836h-174z" />
    <glyph glyph-name="g" unicode="g" horiz-adv-x="1214" 
d="M76 516q0 104 30.5 193t84 153.5t125 110t155.5 68t174 22.5q244 0 438 -107v-1005q0 -113 -29 -202t-76.5 -145t-113.5 -93t-134 -51.5t-144 -14.5q-150 0 -270 38t-197 87l100 184q50 -39 149 -73.5t212 -34.5q55 0 100 14t82.5 44t58.5 84.5t21 129.5v174
q-51 -55 -131 -89t-150 -34q-93 0 -180 38.5t-155 107t-109 173.5t-41 228zM330 516q0 -46 10 -92.5t32 -92t53.5 -81t78 -57t102.5 -21.5q79 0 141 35t95 90v524q-98 43 -189 43q-65 0 -121.5 -20t-102.5 -60.5t-72.5 -109t-26.5 -158.5z" />
    <glyph glyph-name="h" unicode="h" horiz-adv-x="1181" 
d="M133 0v1679h242v-751q56 51 141 93t191 42q172 0 260 -90.5t88 -282.5v-690h-242v563q0 148 -41.5 217.5t-159.5 69.5q-68 0 -137.5 -39.5t-99.5 -79.5v-731h-242z" />
    <glyph glyph-name="i" unicode="i" horiz-adv-x="524" 
d="M109 1368q0 69 43.5 112.5t109.5 43.5q70 0 113 -44t43 -112q0 -69 -44 -112.5t-112 -43.5q-66 0 -109.5 43.5t-43.5 112.5zM141 0v1034h242v-1034h-242z" />
    <glyph glyph-name="j" unicode="j" horiz-adv-x="524" 
d="M-90 -367q37 11 62 19t49 21t39 21t29 27t21.5 31.5t14.5 41.5t9.5 49.5t4.5 64t2 76v94.5v956h242v-960q0 -88 -3 -148t-12 -121t-26.5 -102t-45 -81t-68.5 -69t-96.5 -54.5t-129.5 -47.5zM109 1368q0 68 44 112t111 44q70 0 113 -44t43 -112q0 -69 -44 -112.5
t-112 -43.5q-67 0 -111 44t-44 112z" />
    <glyph glyph-name="k" unicode="k" horiz-adv-x="1087" 
d="M133 0v1679h242v-1054l334 409h301l-424 -475l506 -559h-330l-387 465v-465h-242z" />
    <glyph glyph-name="l" unicode="l" horiz-adv-x="516" 
d="M137 0v1679h242v-1679h-242z" />
    <glyph glyph-name="m" unicode="m" horiz-adv-x="1787" 
d="M133 0v1034h242v-108q52 50 136.5 93.5t188.5 43.5q179 0 258 -156q39 30 72 52t83 48.5t105 41t111 14.5q332 0 332 -369v-694h-242v655q0 195 -162 195q-71 0 -135.5 -35.5t-103.5 -79.5v-735h-242v666q0 184 -174 184q-63 0 -128.5 -38t-98.5 -77v-735h-242z" />
    <glyph glyph-name="n" unicode="n" horiz-adv-x="1181" 
d="M133 0v1034h242v-106q56 51 141 93t191 42q172 0 260 -90.5t88 -282.5v-690h-242v563q0 148 -41.5 217.5t-159.5 69.5q-68 0 -137.5 -39.5t-99.5 -79.5v-731h-242z" />
    <glyph glyph-name="o" unicode="o" horiz-adv-x="1263" 
d="M74 514q0 113 43.5 214.5t118 175t179.5 116.5t222 43q153 0 280.5 -74t200 -200t72.5 -275q0 -148 -74 -273t-202.5 -198.5t-282.5 -73.5t-282 72.5t-201.5 198t-73.5 274.5zM324 508q0 -146 91 -242t214 -96q139 0 222 93t83 251q0 152 -86.5 249t-212.5 97
q-135 0 -223 -97t-88 -255z" />
    <glyph glyph-name="p" unicode="p" horiz-adv-x="1226" 
d="M131 -522v1468q103 58 224 87.5t235 29.5q111 0 210.5 -34.5t178.5 -100.5t125.5 -172t46.5 -238q0 -86 -21 -166.5t-64 -150t-102.5 -121.5t-141.5 -81.5t-177 -29.5q-66 0 -142.5 29.5t-129.5 71.5v-592h-242zM373 287q39 -52 111 -83.5t147 -31.5q111 0 188.5 95.5
t77.5 248.5q0 151 -88.5 247.5t-239.5 96.5q-55 0 -110 -13t-86 -36v-524z" />
    <glyph glyph-name="q" unicode="q" horiz-adv-x="1239" 
d="M74 514q0 106 33 196.5t90 154.5t132.5 109.5t160.5 67t174 21.5q253 0 444 -117v-1468h-242v592q-56 -44 -134.5 -72.5t-153.5 -28.5q-100 0 -192.5 41t-161 112t-109.5 173.5t-41 218.5zM326 506q0 -154 87 -245t208 -91q71 0 136.5 36t108.5 97v510q-35 21 -88 36
t-102 15q-155 0 -252.5 -103.5t-97.5 -254.5z" />
    <glyph glyph-name="r" unicode="r" horiz-adv-x="794" 
d="M133 0v1034h242v-160q9 18 20.5 38.5t33.5 48.5t46 49.5t57.5 37t67.5 15.5q98 0 184 -51l-88 -226q-72 50 -137 50q-83 0 -133.5 -78.5t-50.5 -182.5v-575h-242z" />
    <glyph glyph-name="s" unicode="s" horiz-adv-x="894" 
d="M41 104l90 172q50 -49 131 -86.5t156 -37.5q69 0 111 33t42 85q0 38 -25 72t-65.5 60.5t-89 53t-97 57t-89 65.5t-65.5 84.5t-25 107.5q0 122 98.5 209.5t261.5 87.5q111 0 200.5 -37.5t137.5 -79.5l-90 -168q-13 14 -39.5 34.5t-78.5 43.5t-101 23q-59 0 -97 -29.5
t-38 -75.5q0 -35 24.5 -65t64 -54t87.5 -48.5t96 -55t87.5 -66.5t64 -89t24.5 -117q0 -139 -106 -226.5t-281 -87.5q-120 0 -219.5 39.5t-169.5 95.5z" />
    <glyph glyph-name="t" unicode="t" horiz-adv-x="761" 
d="M41 836v196h195v354h241v-354h254v-196h-254v-836h-241v836h-195z" />
    <glyph glyph-name="u" unicode="u" horiz-adv-x="1177" 
d="M125 371v663h242v-604q0 -260 247 -260q119 0 193 55v809h242v-921q-168 -144 -459 -144q-211 0 -338 103.5t-127 298.5z" />
    <glyph glyph-name="v" unicode="v" horiz-adv-x="1071" 
d="M-8 1034h268l225 -528q46 -107 54 -154h4q7 53 49 154l223 528h264l-495 -1081h-88z" />
    <glyph glyph-name="w" unicode="w" horiz-adv-x="1574" 
d="M0 1034h256l219 -561q23 -62 25 -78q8 35 28 82l240 524h41l242 -528q18 -41 26 -76q1 9 27 78l217 559h254l-426 -1081h-94l-267 592l-268 -592h-94z" />
    <glyph glyph-name="x" unicode="x" horiz-adv-x="1118" 
d="M8 0l416 553l-367 481h293l215 -323l211 323h283l-367 -481l420 -553h-287l-266 385l-262 -385h-289z" />
    <glyph glyph-name="y" unicode="y" horiz-adv-x="1144" 
d="M-4 1034h268l305 -653l305 653h279l-813 -1558h-272l364 657z" />
    <glyph glyph-name="z" unicode="z" horiz-adv-x="1054" 
d="M14 2l582 834h-473v196h874l-567 -833h555v-197h-971z" />
    <glyph glyph-name="braceleft" unicode="{" horiz-adv-x="765" 
d="M16 623q139 70 190.5 154t51.5 206v248q0 107 18.5 182t63 133t123 90.5t196.5 44.5l50 -178q-133 -22 -180.5 -84t-47.5 -215v-246q0 -112 -26.5 -188t-92.5 -147q66 -71 92.5 -147.5t26.5 -188.5v-246q0 -153 47.5 -215t180.5 -84l-50 -178q-118 12 -196.5 44.5
t-123 90.5t-63 133t-18.5 182v248q0 123 -51.5 207t-190.5 154z" />
    <glyph glyph-name="bar" unicode="|" horiz-adv-x="532" 
d="M158 -532v2211h217v-2211h-217z" />
    <glyph glyph-name="braceright" unicode="}" horiz-adv-x="765" 
d="M57 -258q133 22 180.5 84t47.5 215v246q0 113 26 189.5t92 146.5q-66 71 -92 146.5t-26 188.5v246q0 153 -47.5 215t-180.5 84l49 178q118 -12 196.5 -44.5t123.5 -90.5t63.5 -133t18.5 -182v-248q0 -122 51.5 -206t190.5 -154q-139 -70 -190.5 -154t-51.5 -207v-248
q0 -107 -18.5 -182t-63.5 -133t-123.5 -90.5t-196.5 -44.5z" />
    <glyph glyph-name="asciitilde" unicode="~" horiz-adv-x="1146" 
d="M92 1059q50 44 137.5 87.5t163.5 43.5q43 0 94.5 -17t91 -37.5t85.5 -37.5t79 -17q112 0 228 95l84 -203q-43 -41 -122.5 -81t-164.5 -40q-54 0 -171 53t-181 53q-92 0 -238 -98z" />
    <glyph glyph-name="uni00A0" unicode="&#xa0;" horiz-adv-x="491" 
 />
    <glyph glyph-name="exclamdown" unicode="&#xa1;" horiz-adv-x="540" 
d="M119 995q0 59 44 105.5t107 46.5q62 0 107 -47t45 -105q0 -63 -44.5 -108t-107.5 -45q-65 0 -108 44.5t-43 108.5zM131 -432l39 1102h197l43 -1102h-279z" />
    <glyph glyph-name="cent" unicode="&#xa2;" horiz-adv-x="1198" 
d="M113 711q0 105 38 196t102 154.5t146 103.5t172 52v311h166v-307q106 -9 210 -64.5t143 -97.5l-115 -150q-38 33 -110 74t-128 45v-661q81 0 159.5 46t117.5 89l80 -160q-45 -60 -138.5 -108t-218.5 -56v-231h-166v227q-200 34 -329 181t-129 356zM365 702
q0 -119 60.5 -204t145.5 -117v627q-86 -32 -146 -108.5t-60 -197.5z" />
    <glyph glyph-name="sterling" unicode="&#xa3;" horiz-adv-x="1337" 
d="M88 88q9 6 53 26t114.5 46t127.5 39v374h-154v187h154v317q0 240 97 350.5t284 110.5q128 0 252 -92l-105 -174q-3 1 -29.5 18t-53 27t-56.5 10q-77 0 -107 -49.5t-30 -159.5v-358h280v-187h-280v-350q43 -2 158.5 -27.5t181.5 -25.5q100 0 252 41l22 -207
q-128 -31 -213 -39q-25 -2 -61 -2q-70 4 -196.5 30.5t-182.5 26.5q-92 0 -234.5 -46t-195.5 -72z" />
    <glyph glyph-name="currency" unicode="&#xa4;" horiz-adv-x="1472" 
d="M137 1145l172 141l156 -151q127 82 268 82q142 0 268 -80l152 145l184 -137l-157 -154q75 -109 75 -258q0 -150 -81 -264q88 -79 161 -152l-184 -137l-152 144q-131 -76 -266 -76t-266 76l-156 -146l-172 139l156 150q-84 122 -84 266q0 143 82 260zM463 733
q0 -112 82 -193t188 -81q110 0 192.5 81t82.5 193t-82.5 191.5t-192.5 79.5q-105 0 -187.5 -79.5t-82.5 -191.5z" />
    <glyph glyph-name="yen" unicode="&#xa5;" horiz-adv-x="1591" 
d="M92 1550h293l397 -657q11 -19 13 -55q2 33 16 55l397 657h291l-508 -798h379v-187h-448v-176h448v-186h-448v-203h-263v203h-440v186h440v176h-440v187h371z" />
    <glyph glyph-name="brokenbar" unicode="&#xa6;" horiz-adv-x="540" 
d="M162 367h217v-899h-217v899zM162 780v899h217v-899h-217z" />
    <glyph glyph-name="section" unicode="&#xa7;" horiz-adv-x="1200" 
d="M82 815q29 80 121 158t203 129q-7 10 -71 108.5t-93 147.5q8 49 133.5 126.5t269.5 133.5t207 53l49 -227q-66 0 -216 -24.5t-214 -45.5l635 -1005q-54 -150 -313 -281q24 -41 204 -324q-18 -52 -141 -134t-269.5 -143.5t-226.5 -61.5l-47 227q67 -1 227 33t226 61z
M311 846l373 -588q17 -3 61 14q28 10 71 33t58 35l-362 580q-29 0 -82 -17q-50 -17 -119 -57z" />
    <glyph glyph-name="dieresis" unicode="&#xa8;" horiz-adv-x="980" 
d="M102 1323q0 56 41 94.5t99 38.5q62 0 103.5 -38t41.5 -95q0 -54 -42 -92.5t-103 -38.5q-57 0 -98.5 38.5t-41.5 92.5zM596 1323q0 57 39.5 95t99.5 38q65 0 104.5 -37.5t39.5 -95.5q0 -55 -40 -93t-104 -38q-59 0 -99 38t-40 93z" />
    <glyph glyph-name="copyright" unicode="&#xa9;" horiz-adv-x="1861" 
d="M111 762q0 167 64.5 318t174 260t261 173t319.5 64t320 -64t261.5 -173t174.5 -260t65 -318q0 -165 -65 -315.5t-174.5 -259.5t-261.5 -173.5t-320 -64.5t-319.5 64.5t-261 173.5t-174 259t-64.5 316zM305 764q0 -128 49 -244t132 -200t199 -133.5t245 -49.5
q128 0 244 49.5t199 133.5t132 200t49 244q0 172 -83 316.5t-226.5 227.5t-314.5 83q-129 0 -245 -49t-199 -133t-132 -200t-49 -245zM434 766q0 96 37.5 182.5t104 151t164.5 103t212 38.5q218 0 365 -131l-109 -145q-101 88 -266 88q-127 0 -205 -82t-78 -207
q0 -115 91.5 -197t220.5 -82q168 0 260 68l96 -135q-134 -119 -356 -119q-228 0 -382.5 137.5t-154.5 329.5z" />
    <glyph glyph-name="ordfeminine" unicode="&#xaa;" horiz-adv-x="940" 
d="M86 1016q0 61 28.5 107t77 71.5t104 38t116.5 12.5q91 0 176 -33v64q0 35 -42 58.5t-116 23.5q-83 0 -197 -39l-65 133q143 64 307 64q99 0 167 -20.5t105.5 -61.5t53.5 -94t16 -126v-362q-126 -100 -368 -100q-178 0 -270.5 75t-92.5 189zM322 1012q0 -47 36 -75
t101 -28q71 0 131 29v121q-64 41 -135 41q-55 0 -94 -24.5t-39 -63.5z" />
    <glyph glyph-name="guillemotleft" unicode="&#xab;" horiz-adv-x="1247" 
d="M82 487l295 435h262l-315 -437l323 -434h-264zM604 487l295 435h256l-317 -435l329 -436h-260z" />
    <glyph glyph-name="logicalnot" unicode="&#xac;" horiz-adv-x="1464" 
d="M135 621v227h1168v-623h-261v396h-907z" />
    <glyph glyph-name="uni00AD" unicode="&#xad;" horiz-adv-x="878" 
d="M135 401l27 201h581l-26 -201h-582z" />
    <glyph glyph-name="registered" unicode="&#xae;" horiz-adv-x="1464" 
d="M131 1006q0 121 48 231t129 189t192 126t233 47q120 0 231 -47t192 -126t129 -189t48 -231q0 -161 -81.5 -298.5t-219.5 -217.5t-299 -80q-162 0 -301 80t-220 217.5t-81 298.5zM297 1008q0 -118 58.5 -219.5t159.5 -161.5t220 -60q178 0 307 130.5t129 310.5
q0 179 -129 308.5t-307 129.5q-183 0 -310.5 -125.5t-127.5 -312.5zM514 690v656h188q45 0 85 -6.5t77.5 -22.5t64.5 -39.5t43.5 -60t16.5 -82.5q0 -74 -36.5 -118t-118.5 -67l182 -260h-172l-150 240l-22 35v-275h-158zM672 1044h39q137 0 137 95q0 39 -32.5 61.5
t-92.5 22.5h-51v-179z" />
    <glyph glyph-name="macron" unicode="&#xaf;" horiz-adv-x="1075" 
d="M100 1229v203h875v-203h-875z" />
    <glyph glyph-name="degree" unicode="&#xb0;" horiz-adv-x="890" 
d="M92 1298q0 136 101.5 230t250.5 94q148 0 251.5 -94.5t103.5 -229.5t-103.5 -228t-251.5 -93q-149 0 -250.5 93t-101.5 228zM299 1298q0 -69 42 -117t103 -48q63 0 105.5 48t42.5 117t-42.5 117.5t-105.5 48.5q-61 0 -103 -48.5t-42 -117.5z" />
    <glyph glyph-name="plusminus" unicode="&#xb1;" horiz-adv-x="1449" 
d="M139 2v203h1172v-203h-1172zM139 741v203h465v432h242v-432h465v-203h-465v-430h-242v430h-465z" />
    <glyph glyph-name="uni00B2" unicode="&#xb2;" horiz-adv-x="935" 
d="M35 676q53 36 117 86t141 121t139 140t104 144t42 133q0 57 -37 88t-90 31q-54 0 -110 -30.5t-91 -67.5l-109 149q158 136 342 136q148 0 241 -84t93 -209q0 -73 -36.5 -149.5t-93.5 -138.5t-109.5 -106.5t-102.5 -76.5l387 20v-186h-827z" />
    <glyph glyph-name="uni00B3" unicode="&#xb3;" horiz-adv-x="813" 
d="M35 756l100 157q25 -27 91.5 -51t129.5 -24q75 0 115.5 37t40.5 88q0 65 -66.5 102t-169.5 37q-31 0 -47 -2v129q6 0 16 -1t23 -1q81 0 137 30.5t56 85.5q0 37 -29 57.5t-76 20.5q-78 0 -157 -47l-68 164q33 27 107 47.5t153 20.5q137 0 220 -65.5t83 -166.5
q0 -126 -129 -192v-2q85 -32 129.5 -103.5t44.5 -146.5q0 -117 -106 -198t-277 -81q-114 0 -196.5 34t-124.5 71z" />
    <glyph glyph-name="acute" unicode="&#xb4;" horiz-adv-x="753" 
d="M102 1296l344 381l205 -149l-393 -334z" />
    <glyph glyph-name="paragraph" unicode="&#xb6;" horiz-adv-x="1198" 
d="M88 1016q0 95 38.5 189t106.5 169.5t172.5 122.5t225.5 47v-1014q-122 -4 -226 37t-172 110.5t-106.5 158t-38.5 180.5zM754 -317v1867h239v-1867h-239z" />
    <glyph glyph-name="periodcentered" unicode="&#xb7;" horiz-adv-x="542" 
d="M115 741q0 62 45.5 104t109.5 42q67 0 112.5 -41.5t45.5 -104.5q0 -56 -46.5 -98.5t-111.5 -42.5q-63 0 -109 42t-46 99z" />
    <glyph glyph-name="cedilla" unicode="&#xb8;" horiz-adv-x="669" 
d="M135 -500l152 420h284l-229 -420h-207z" />
    <glyph glyph-name="uni00B9" unicode="&#xb9;" horiz-adv-x="614" 
d="M23 1452l466 166v-946h-227v663l-153 -57z" />
    <glyph glyph-name="ordmasculine" unicode="&#xba;" horiz-adv-x="1026" 
d="M86 1130q0 159 124.5 272.5t303.5 113.5t303.5 -114.5t124.5 -271.5q0 -156 -124 -267t-304 -111q-179 0 -303.5 110.5t-124.5 267.5zM326 1126q0 -85 56.5 -143.5t129.5 -58.5q85 0 136.5 57t51.5 149q0 90 -53 151.5t-129 61.5q-82 0 -137 -62.5t-55 -154.5z" />
    <glyph glyph-name="guillemotright" unicode="&#xbb;" horiz-adv-x="1232" 
d="M86 49l326 434l-318 437h256l295 -433l-303 -438h-256zM604 49l324 436l-318 435h250l291 -433l-299 -438h-248z" />
    <glyph glyph-name="onequarter" unicode="&#xbc;" horiz-adv-x="1861" 
d="M82 1452l467 166v-946h-227v663l-154 -57zM352 12l815 1567l199 -92l-817 -1567zM901 143v142l555 639h152v-602h149v-179h-149v-153h-217v153h-490zM1141 309h258v297z" />
    <glyph glyph-name="onehalf" unicode="&#xbd;" horiz-adv-x="1988" 
d="M82 1452l467 166v-946h-227v663l-154 -57zM352 12l815 1567l199 -92l-817 -1567zM1051 0q53 36 117 86.5t141 121t138.5 140t103.5 144.5t42 133q0 57 -37 87.5t-90 30.5q-54 0 -109.5 -30.5t-90.5 -67.5l-109 150q157 135 342 135q148 0 241 -84t93 -209
q0 -73 -36.5 -149.5t-93.5 -138.5t-109.5 -106.5t-102.5 -76.5l387 20v-186h-827z" />
    <glyph glyph-name="threequarters" unicode="&#xbe;" horiz-adv-x="2043" 
d="M86 756l100 157q25 -27 92 -51t130 -24q75 0 115 36.5t40 88.5q0 66 -66 102.5t-169 36.5q-31 0 -47 -2v129q6 0 15.5 -1t22.5 -1q81 0 137 30.5t56 85.5q0 37 -28.5 57.5t-75.5 20.5q-79 0 -158 -47l-68 164q33 27 107 47.5t153 20.5q137 0 220 -65.5t83 -166.5
q0 -126 -129 -192v-2q85 -32 130 -103.5t45 -146.5q0 -117 -106 -198t-277 -81q-114 0 -197 34t-125 71zM539 12l815 1567l198 -92l-817 -1567zM1087 143v142l555 639h152v-602h150v-179h-150v-153h-217v153h-490zM1327 309h258v297z" />
    <glyph glyph-name="questiondown" unicode="&#xbf;" horiz-adv-x="964" 
d="M90 418q21 35 58.5 72.5t89 75t121 61.5t139.5 24q66 0 130.5 -21t117.5 -59.5t85.5 -99.5t32.5 -133q0 -38 -8 -72t-26 -63t-33.5 -50.5t-44 -45.5t-44 -36.5t-46.5 -33.5t-39 -27q-48 -35 -76 -57t-63 -54.5t-51.5 -62.5t-16.5 -59q0 -38 27.5 -68.5t82.5 -30.5
q15 0 31 3t29 7t28 11t24.5 12.5t23.5 14.5t19.5 13.5t17.5 14t14 10.5l94 -133q-161 -139 -336 -139q-73 0 -132 25.5t-95 67t-55 90.5t-19 100q0 97 69 179t205 179q42 30 63.5 46.5t53 46t46 57.5t14.5 57q0 49 -35.5 86t-100.5 37q-80 0 -157 -55t-117 -111zM365 950
q0 60 43.5 108t103.5 48q61 0 105.5 -47.5t44.5 -108.5q0 -60 -44.5 -103.5t-105.5 -43.5t-104 44t-43 103z" />
    <glyph glyph-name="Agrave" unicode="&#xc0;" 
d="M-29 0l795 1614l790 -1614h-292l-142 303h-719l-139 -303h-293zM410 1790l96 215l618 -141l-63 -174zM512 541h502l-223 481q-24 48 -27 74q-1 -6 -31 -74z" />
    <glyph glyph-name="Aacute" unicode="&#xc1;" 
d="M-29 0l795 1614l790 -1614h-292l-142 303h-719l-139 -303h-293zM410 1872l618 141l96 -213l-651 -100zM512 541h502l-223 481q-24 48 -27 74q-1 -6 -31 -74z" />
    <glyph glyph-name="Acircumflex" unicode="&#xc2;" 
d="M-29 0l795 1614l790 -1614h-292l-142 303h-719l-139 -303h-293zM319 1786l443 223l446 -215l-121 -139l-327 117l-342 -134zM512 541h502l-223 481q-24 48 -27 74q-1 -6 -31 -74z" />
    <glyph glyph-name="Atilde" unicode="&#xc3;" 
d="M-29 0l795 1614l790 -1614h-292l-142 303h-719l-139 -303h-293zM322 1841q55 49 151.5 100.5t167.5 51.5q36 0 73.5 -16.5t64.5 -36t60.5 -36t61.5 -16.5q50 0 102.5 38t90.5 81l114 -172q-167 -149 -299 -149q-50 0 -99.5 25t-93.5 50t-81 25q-71 0 -201 -103zM512 541
h502l-223 481q-24 48 -27 74q-1 -6 -31 -74z" />
    <glyph glyph-name="Adieresis" unicode="&#xc4;" 
d="M-29 0l795 1614l790 -1614h-292l-142 303h-719l-139 -303h-293zM324 1868q0 59 45.5 100t109.5 41q68 0 114 -40.5t46 -100.5q0 -58 -46.5 -100t-113.5 -42q-63 0 -109 42.5t-46 99.5zM512 541h502l-223 481q-24 48 -27 74q-1 -6 -31 -74zM866 1868q0 60 43.5 100.5
t110.5 40.5q72 0 116 -40t44 -101q0 -59 -44.5 -100.5t-115.5 -41.5q-66 0 -110 42t-44 100z" />
    <glyph glyph-name="Aring" unicode="&#xc5;" 
d="M-29 0l795 1614l790 -1614h-292l-142 303h-719l-139 -303h-293zM510 1890q0 104 75 176t181 72q105 0 179.5 -73.5t74.5 -174.5q0 -103 -74 -175.5t-180 -72.5q-107 0 -181.5 72.5t-74.5 175.5zM512 541h502l-223 481q-24 48 -27 74q-1 -6 -31 -74zM664 1890
q0 -43 30 -74.5t72 -31.5q43 0 74.5 31.5t31.5 74.5t-32 76t-74 33t-72 -33t-30 -76z" />
    <glyph glyph-name="AE" unicode="&#xc6;" horiz-adv-x="2056" 
d="M-45 0l1063 1548h893v-237h-635v-369h512v-237h-512v-465h700v-238h-962v301h-529l-192 -303h-338zM635 541h379v594z" />
    <glyph glyph-name="Ccedilla" unicode="&#xc7;" horiz-adv-x="1560" 
d="M86 778q0 162 61.5 309t169 257t264.5 175.5t337 65.5q111 0 213 -25t171.5 -62.5t113.5 -70.5t67 -61l-140 -182q-81 79 -192.5 121.5t-232.5 42.5q-127 0 -233 -46.5t-175 -125t-107 -180t-38 -212.5q0 -161 74.5 -294t211 -211t307.5 -78q134 0 247.5 44t166.5 97
l121 -170q-216 -207 -547 -207q-184 0 -345.5 65t-273.5 175t-176.5 259t-64.5 314zM643 -547l152 420h284l-229 -420h-207z" />
    <glyph glyph-name="Egrave" unicode="&#xc8;" horiz-adv-x="1216" 
d="M174 2v1546h897v-237h-635v-369h512v-237h-512v-465h701v-238h-963zM264 1792l96 215l619 -141l-64 -174z" />
    <glyph glyph-name="Eacute" unicode="&#xc9;" horiz-adv-x="1216" 
d="M174 2v1546h897v-237h-635v-369h512v-237h-512v-465h701v-238h-963zM283 1870l618 141l96 -213l-651 -100z" />
    <glyph glyph-name="Ecircumflex" unicode="&#xca;" horiz-adv-x="1216" 
d="M174 2v1546h897v-237h-635v-369h512v-237h-512v-465h701v-238h-963zM195 1827l442 207l446 -215l-120 -140l-328 121l-342 -121z" />
    <glyph glyph-name="Edieresis" unicode="&#xcb;" horiz-adv-x="1216" 
d="M174 2v1546h897v-237h-635v-369h512v-237h-512v-465h701v-238h-963zM238 1810q0 57 41 95.5t98 38.5q62 0 103.5 -38.5t41.5 -95.5q0 -54 -42 -92.5t-103 -38.5q-57 0 -98 38.5t-41 92.5zM731 1810q0 57 39.5 95.5t99.5 38.5q65 0 104.5 -38t39.5 -96q0 -55 -40 -93
t-104 -38q-59 0 -99 38t-40 93z" />
    <glyph glyph-name="Igrave" unicode="&#xcc;" horiz-adv-x="610" 
d="M-61 1786l96 215l618 -141l-63 -174zM174 0v1550h262v-1550h-262z" />
    <glyph glyph-name="Iacute" unicode="&#xcd;" horiz-adv-x="610" 
d="M-23 1870l619 141l96 -213l-651 -100zM174 0v1550h262v-1550h-262z" />
    <glyph glyph-name="Icircumflex" unicode="&#xce;" horiz-adv-x="610" 
d="M-137 1823l442 207l447 -215l-121 -140l-328 121l-342 -121zM174 0v1550h262v-1550h-262z" />
    <glyph glyph-name="Idieresis" unicode="&#xcf;" horiz-adv-x="610" 
d="M-43 1810q0 57 41 95.5t98 38.5q62 0 104 -38.5t42 -95.5q0 -54 -42.5 -92.5t-103.5 -38.5q-57 0 -98 38.5t-41 92.5zM174 0v1550h262v-1550h-262zM369 1810q0 57 39.5 95.5t99.5 38.5q65 0 104 -38t39 -96q0 -56 -39.5 -93.5t-103.5 -37.5q-59 0 -99 38t-40 93z" />
    <glyph glyph-name="Eth" unicode="&#xd0;" horiz-adv-x="1599" 
d="M27 662v229h190v659h449q140 0 265 -31.5t230 -96t181.5 -155.5t119.5 -217.5t43 -275.5q0 -242 -109.5 -418t-307 -266t-461.5 -90h-410v662h-190zM479 238h183q95 0 177.5 18.5t154.5 60.5t123 104t80.5 153.5t29.5 205.5q0 239 -150 386t-385 147h-213v-422h357v-229
h-357v-424z" />
    <glyph glyph-name="Ntilde" unicode="&#xd1;" horiz-adv-x="1755" 
d="M172 0l2 1593l1151 -1061l-4 1018h262l-2 -1607l-1151 1038l4 -981h-262zM412 1835q55 49 151.5 100.5t167.5 51.5q36 0 73.5 -16.5t64.5 -36t60.5 -36t61.5 -16.5q50 0 102.5 38t90.5 81l114 -172q-168 -150 -299 -150q-40 0 -80.5 16t-67.5 34.5t-61.5 34.5t-64.5 16
q-71 0 -201 -103z" />
    <glyph glyph-name="Ograve" unicode="&#xd2;" horiz-adv-x="1857" 
d="M86 774q0 164 66.5 313.5t179.5 259t270 174t330 64.5t328 -62.5t267.5 -170.5t178.5 -260t66 -324q0 -162 -68 -310.5t-181 -256.5t-268 -172t-323 -64q-231 0 -426 109.5t-307.5 295.5t-112.5 404zM365 782q0 -112 44 -218.5t118 -186t177 -128t214 -48.5
q119 0 226 44.5t183.5 120.5t121 181.5t44.5 222.5q0 162 -76.5 295.5t-205 208t-279.5 74.5q-154 0 -284 -74.5t-206.5 -205t-76.5 -286.5zM571 1798l97 215l618 -141l-63 -174z" />
    <glyph glyph-name="Oacute" unicode="&#xd3;" horiz-adv-x="1857" 
d="M86 774q0 164 66.5 313.5t179.5 259t270 174t330 64.5t328 -62.5t267.5 -170.5t178.5 -260t66 -324q0 -162 -68 -310.5t-181 -256.5t-268 -172t-323 -64q-231 0 -426 109.5t-307.5 295.5t-112.5 404zM365 782q0 -112 44 -218.5t118 -186t177 -128t214 -48.5
q119 0 226 44.5t183.5 120.5t121 181.5t44.5 222.5q0 162 -76.5 295.5t-205 208t-279.5 74.5q-154 0 -284 -74.5t-206.5 -205t-76.5 -286.5zM571 1872l619 141l96 -213l-651 -100z" />
    <glyph glyph-name="Ocircumflex" unicode="&#xd4;" horiz-adv-x="1857" 
d="M86 774q0 164 66.5 313.5t179.5 259t270 174t330 64.5t328 -62.5t267.5 -170.5t178.5 -260t66 -324q0 -162 -68 -310.5t-181 -256.5t-268 -172t-323 -64q-231 0 -426 109.5t-307.5 295.5t-112.5 404zM365 782q0 -112 44 -218.5t118 -186t177 -128t214 -48.5
q119 0 226 44.5t183.5 120.5t121 181.5t44.5 222.5q0 162 -76.5 295.5t-205 208t-279.5 74.5q-154 0 -284 -74.5t-206.5 -205t-76.5 -286.5zM483 1802l443 207l446 -215l-121 -139l-327 121l-342 -121z" />
    <glyph glyph-name="Otilde" unicode="&#xd5;" horiz-adv-x="1857" 
d="M86 774q0 164 66.5 313.5t179.5 259t270 174t330 64.5t328 -62.5t267.5 -170.5t178.5 -260t66 -324q0 -162 -68 -310.5t-181 -256.5t-268 -172t-323 -64q-231 0 -426 109.5t-307.5 295.5t-112.5 404zM365 782q0 -112 44 -218.5t118 -186t177 -128t214 -48.5
q119 0 226 44.5t183.5 120.5t121 181.5t44.5 222.5q0 162 -76.5 295.5t-205 208t-279.5 74.5q-154 0 -284 -74.5t-206.5 -205t-76.5 -286.5zM485 1841q55 49 152 100.5t168 51.5q36 0 73.5 -16.5t64.5 -36t60.5 -36t61.5 -16.5q50 0 102 38t90 81l115 -172
q-167 -149 -299 -149q-50 0 -99.5 25t-93.5 50t-81 25q-71 0 -201 -103z" />
    <glyph glyph-name="Odieresis" unicode="&#xd6;" horiz-adv-x="1857" 
d="M86 774q0 218 112.5 400t307 286.5t426.5 104.5q173 0 328 -59.5t267.5 -163.5t178.5 -253t66 -321q0 -162 -68 -310.5t-181 -256.5t-268 -172t-323 -64q-231 0 -426 109.5t-307.5 295.5t-112.5 404zM340 1806q0 61 42 102.5t101 41.5q63 0 105.5 -41.5t42.5 -102.5
q0 -57 -42.5 -97t-105.5 -40q-59 0 -101 40t-42 97zM365 782q0 -112 44 -218.5t118 -186t177 -128t214 -48.5q119 0 226 44.5t183.5 120.5t121 181.5t44.5 222.5q0 162 -76.5 295.5t-205 208t-279.5 74.5q-154 0 -284 -74.5t-206.5 -205t-76.5 -286.5zM1227 1806
q0 61 42 102.5t101 41.5q63 0 105.5 -41.5t42.5 -102.5q0 -57 -42.5 -97t-105.5 -40q-59 0 -101 40t-42 97z" />
    <glyph glyph-name="multiply" unicode="&#xd7;" horiz-adv-x="1374" 
d="M129 348l399 375l-393 375l168 133l389 -369l381 371l168 -135l-389 -373l391 -373l-170 -133l-385 369l-383 -365z" />
    <glyph glyph-name="Oslash" unicode="&#xd8;" horiz-adv-x="1857" 
d="M86 774q0 164 66.5 313.5t179.5 259t270 174t330 64.5q107 0 209 -24l104 249l225 -84l-106 -253q187 -106 297.5 -292.5t110.5 -412.5q0 -162 -68 -310.5t-181 -256.5t-268 -172t-323 -64q-86 0 -193 21l-116 -279l-230 68l123 295q-196 106 -313 293.5t-117 410.5z
M365 782q0 -143 67.5 -270.5t181.5 -210.5l433 1034q-60 13 -115 13q-154 0 -284 -74.5t-206.5 -205t-76.5 -286.5zM831 207q43 -6 87 -6q119 0 226 44.5t183.5 120.5t121 181.5t44.5 222.5q0 144 -61.5 266t-167.5 201z" />
    <glyph glyph-name="Ugrave" unicode="&#xd9;" horiz-adv-x="1585" 
d="M164 569v981h262v-837q0 -292 87 -404t323 -112q196 0 319 90v1263h262v-1364q-96 -100 -252.5 -160.5t-376.5 -60.5q-301 0 -462.5 152.5t-161.5 451.5zM436 1788l96 215l619 -141l-64 -174z" />
    <glyph glyph-name="Uacute" unicode="&#xda;" horiz-adv-x="1585" 
d="M164 569v981h262v-837q0 -292 87 -404t323 -112q196 0 319 90v1263h262v-1364q-96 -100 -252.5 -160.5t-376.5 -60.5q-301 0 -462.5 152.5t-161.5 451.5zM451 1858l618 141l96 -213l-651 -100z" />
    <glyph glyph-name="Ucircumflex" unicode="&#xdb;" horiz-adv-x="1585" 
d="M164 569v981h262v-837q0 -292 87 -404t323 -112q196 0 319 90v1263h262v-1364q-96 -100 -252.5 -160.5t-376.5 -60.5q-301 0 -462.5 152.5t-161.5 451.5zM360 1825l443 207l446 -215l-121 -140l-327 121l-342 -121z" />
    <glyph glyph-name="Udieresis" unicode="&#xdc;" horiz-adv-x="1585" 
d="M160 1810q0 57 41 95.5t98 38.5q62 0 103.5 -38.5t41.5 -95.5q0 -54 -42 -92.5t-103 -38.5q-57 0 -98 38.5t-41 92.5zM164 569v981h262v-837q0 -292 87 -404t323 -112q196 0 319 90v1263h262v-1364q-96 -100 -252.5 -160.5t-376.5 -60.5q-301 0 -462.5 152.5
t-161.5 451.5zM1143 1810q0 57 39.5 95.5t99.5 38.5q65 0 104 -38t39 -96q0 -56 -39.5 -93.5t-103.5 -37.5q-59 0 -99 38t-40 93z" />
    <glyph glyph-name="Yacute" unicode="&#xdd;" horiz-adv-x="1337" 
d="M-31 1550h293l397 -657q11 -19 13 -55q2 33 16 55l397 657h291l-577 -909v-641h-262v641zM483 1614l344 381l205 -150l-393 -334z" />
    <glyph glyph-name="Thorn" unicode="&#xde;" horiz-adv-x="1226" 
d="M174 0v1550h262v-264h76q649 0 649 -495q0 -242 -154 -382.5t-458 -140.5h-113v-268h-262zM436 506h107q165 0 253.5 79t88.5 208q0 120 -77.5 187t-223.5 67h-148v-541z" />
    <glyph glyph-name="germandbls" unicode="&#xdf;" horiz-adv-x="1275" 
d="M49 836v196h174v203q0 204 94 315q54 62 137.5 92.5t174.5 30.5q68 0 133.5 -17t96 -32t44.5 -25l-94 -186q-79 55 -168 55t-133.5 -59.5t-44.5 -169.5v-207h733l-332 -596q27 6 56 6q84 0 149 -51t99 -135t34 -184q0 -74 -19.5 -145.5t-64 -142t-109 -126.5t-162 -97.5
t-216.5 -56.5v199q98 10 172.5 66.5t110.5 134t36 159.5q0 105 -62.5 176.5t-178.5 71.5q-76 0 -154 -35l293 560h-385v-836h-240v836h-174z" />
    <glyph glyph-name="agrave" unicode="&#xe0;" horiz-adv-x="1107" 
d="M53 336q0 141 111 239.5t295 98.5q86 0 169 -23t132 -69v120q0 78 -52 119t-176 41q-147 0 -288 -59l-74 176q176 84 389 84q101 0 176 -19.5t123.5 -53.5t78.5 -86.5t42 -113t12 -139.5v-542q-63 -59 -188.5 -99.5t-267.5 -40.5q-98 0 -179.5 21.5t-136.5 57.5t-93 84
t-55.5 99t-17.5 105zM227 1528l205 149l344 -381l-155 -102zM305 326q0 -66 60 -115t172 -49q63 0 124 15.5t99 39.5v180q-36 35 -105.5 61.5t-140.5 26.5q-97 0 -153 -47t-56 -112z" />
    <glyph glyph-name="aacute" unicode="&#xe1;" horiz-adv-x="1107" 
d="M53 336q0 141 111 239.5t295 98.5q86 0 169 -23t132 -69v120q0 78 -52 119t-176 41q-147 0 -288 -59l-74 176q176 84 389 84q101 0 176 -19.5t123.5 -53.5t78.5 -86.5t42 -113t12 -139.5v-542q-63 -59 -188.5 -99.5t-267.5 -40.5q-98 0 -179.5 21.5t-136.5 57.5t-93 84
t-55.5 99t-17.5 105zM305 326q0 -66 60 -115t172 -49q63 0 124 15.5t99 39.5v180q-36 35 -105.5 61.5t-140.5 26.5q-97 0 -153 -47t-56 -112zM367 1296l344 381l204 -149l-393 -334z" />
    <glyph glyph-name="acircumflex" unicode="&#xe2;" horiz-adv-x="1107" 
d="M53 336q0 141 111 239.5t295 98.5q86 0 169 -23t132 -69v120q0 78 -52 119t-176 41q-147 0 -288 -59l-74 176q176 84 389 84q101 0 176 -19.5t123.5 -53.5t78.5 -86.5t42 -113t12 -139.5v-542q-63 -59 -188.5 -99.5t-267.5 -40.5q-98 0 -179.5 21.5t-136.5 57.5t-93 84
t-55.5 99t-17.5 105zM190 1311l385 278l381 -278l-127 -146l-256 170l-251 -170zM305 326q0 -66 60 -115t172 -49q63 0 124 15.5t99 39.5v180q-36 35 -105.5 61.5t-140.5 26.5q-97 0 -153 -47t-56 -112z" />
    <glyph glyph-name="atilde" unicode="&#xe3;" horiz-adv-x="1107" 
d="M53 336q0 141 111 239.5t295 98.5q86 0 169 -23t132 -69v120q0 78 -52 119t-176 41q-147 0 -288 -59l-74 176q176 84 389 84q101 0 176 -19.5t123.5 -53.5t78.5 -86.5t42 -113t12 -139.5v-542q-63 -59 -188.5 -99.5t-267.5 -40.5q-98 0 -179.5 21.5t-136.5 57.5t-93 84
t-55.5 99t-17.5 105zM125 1341q63 56 149 108t156 52q45 0 92 -26t90.5 -52t77.5 -26q50 0 102.5 38t90.5 81l100 -162q-160 -160 -285 -160q-50 0 -99.5 25t-93.5 50t-81 25q-19 0 -38 -5.5t-39.5 -18.5t-33 -22t-36.5 -29t-33 -27zM305 326q0 -66 60 -115t172 -49
q63 0 124 15.5t99 39.5v180q-36 35 -105.5 61.5t-140.5 26.5q-97 0 -153 -47t-56 -112z" />
    <glyph glyph-name="adieresis" unicode="&#xe4;" horiz-adv-x="1107" 
d="M53 336q0 141 111 239.5t295 98.5q86 0 169 -23t132 -69v120q0 78 -52 119t-176 41q-147 0 -288 -59l-74 176q176 84 389 84q101 0 176 -19.5t123.5 -53.5t78.5 -86.5t42 -113t12 -139.5v-542q-63 -59 -188.5 -99.5t-267.5 -40.5q-98 0 -179.5 21.5t-136.5 57.5t-93 84
t-55.5 99t-17.5 105zM141 1337q0 56 41 94.5t99 38.5q62 0 103.5 -38t41.5 -95q0 -54 -42 -92.5t-103 -38.5q-57 0 -98.5 38.5t-41.5 92.5zM305 326q0 -66 60 -115t172 -49q63 0 124 15.5t99 39.5v180q-36 35 -105.5 61.5t-140.5 26.5q-97 0 -153 -47t-56 -112zM635 1337
q0 57 39.5 95t99.5 38q65 0 104.5 -37.5t39.5 -95.5q0 -55 -40 -93t-104 -38q-59 0 -99 38t-40 93z" />
    <glyph glyph-name="aring" unicode="&#xe5;" horiz-adv-x="1107" 
d="M53 336q0 141 111 239.5t295 98.5q86 0 169 -23t132 -69v120q0 78 -52 119t-176 41q-147 0 -288 -59l-74 176q176 84 389 84q101 0 176 -19.5t123.5 -53.5t78.5 -86.5t42 -113t12 -139.5v-542q-63 -59 -188.5 -99.5t-267.5 -40.5q-98 0 -179.5 21.5t-136.5 57.5t-93 84
t-55.5 99t-17.5 105zM297 1401q0 104 75 176t181 72q105 0 179.5 -73.5t74.5 -174.5q0 -103 -74 -175.5t-180 -72.5q-107 0 -181.5 72.5t-74.5 175.5zM305 326q0 -66 60 -115t172 -49q63 0 124 15.5t99 39.5v180q-36 35 -105.5 61.5t-140.5 26.5q-97 0 -153 -47t-56 -112z
M451 1401q0 -43 30 -75t72 -32q43 0 74.5 32t31.5 75t-31.5 75.5t-74.5 32.5q-42 0 -72 -32.5t-30 -75.5z" />
    <glyph glyph-name="ae" unicode="&#xe6;" horiz-adv-x="1861" 
d="M53 336q0 141 111 239.5t295 98.5q86 0 169 -23t132 -69v120q0 78 -52 119t-176 41q-147 0 -288 -59l-74 176q176 84 389 84q298 0 361 -152q52 74 150.5 113t213.5 39q122 0 220 -43.5t159 -118t93 -170.5t32 -205v-100h-795q10 -104 105 -180t256 -76q180 0 321 109
l76 -173q-54 -48 -172 -92.5t-264 -44.5q-214 0 -365 107q-71 -47 -182.5 -77t-232.5 -30q-98 0 -179.5 21.5t-136.5 57.5t-93 84t-55.5 99t-17.5 105zM305 326q0 -66 60 -115t170 -49q69 0 143.5 21t126.5 61q-36 82 -41 151q-32 34 -104.5 62t-145.5 28
q-96 0 -152.5 -47.5t-56.5 -111.5zM995 621h541q-5 107 -73 179t-183 72q-110 0 -191 -67t-94 -184z" />
    <glyph glyph-name="ccedilla" unicode="&#xe7;" horiz-adv-x="1064" 
d="M74 516q0 153 77 279.5t205 197t277 70.5q116 0 215 -41.5t137 -79.5l-92 -182q-21 19 -49.5 38.5t-85.5 40.5t-115 21q-132 0 -225.5 -93t-93.5 -253q0 -151 92 -248.5t227 -97.5q107 0 181.5 38t113.5 81l78 -168q-23 -23 -52.5 -44t-79.5 -47.5t-122 -42.5t-154 -16
q-74 0 -149.5 23.5t-144 71t-122.5 112t-86 153t-32 187.5zM352 -541l152 420h284l-229 -420h-207z" />
    <glyph glyph-name="egrave" unicode="&#xe8;" horiz-adv-x="1193" 
d="M76 510q0 159 67 284.5t190.5 197t282.5 71.5q122 0 220 -43.5t159 -118t93 -170.5t32 -205v-100h-794q11 -107 106 -181.5t256 -74.5q181 0 320 109l75 -173q-54 -48 -172 -92.5t-264 -44.5q-257 0 -414 148t-157 393zM274 1528l205 149l344 -381l-155 -102zM328 621
h540q-5 107 -73 179t-183 72q-110 0 -190.5 -67t-93.5 -184z" />
    <glyph glyph-name="eacute" unicode="&#xe9;" horiz-adv-x="1193" 
d="M76 510q0 159 67 284.5t190.5 197t282.5 71.5q122 0 220 -43.5t159 -118t93 -170.5t32 -205v-100h-794q11 -107 106 -181.5t256 -74.5q181 0 320 109l75 -173q-54 -48 -172 -92.5t-264 -44.5q-257 0 -414 148t-157 393zM328 621h540q-5 107 -73 179t-183 72
q-110 0 -190.5 -67t-93.5 -184zM416 1296l344 381l205 -149l-394 -334z" />
    <glyph glyph-name="ecircumflex" unicode="&#xea;" horiz-adv-x="1193" 
d="M76 510q0 159 67 284.5t190.5 197t282.5 71.5q122 0 220 -43.5t159 -118t93 -170.5t32 -205v-100h-794q11 -107 106 -181.5t256 -74.5q181 0 320 109l75 -173q-54 -48 -172 -92.5t-264 -44.5q-257 0 -414 148t-157 393zM225 1317l385 278l381 -278l-127 -146l-256 191
l-252 -191zM328 621h540q-5 107 -73 179t-183 72q-110 0 -190.5 -67t-93.5 -184z" />
    <glyph glyph-name="edieresis" unicode="&#xeb;" horiz-adv-x="1193" 
d="M76 510q0 159 67 284.5t190.5 197t282.5 71.5q122 0 220 -43.5t159 -118t93 -170.5t32 -205v-100h-794q11 -107 106 -181.5t256 -74.5q181 0 320 109l75 -173q-54 -48 -172 -92.5t-264 -44.5q-257 0 -414 148t-157 393zM213 1323q0 56 40.5 94.5t98.5 38.5q62 0 104 -38
t42 -95q0 -54 -42.5 -92.5t-103.5 -38.5q-57 0 -98 38.5t-41 92.5zM328 621h540q-5 107 -73 179t-183 72q-110 0 -190.5 -67t-93.5 -184zM707 1323q0 57 39.5 95t99.5 38q65 0 104 -37.5t39 -95.5q0 -56 -39.5 -93.5t-103.5 -37.5q-59 0 -99 38t-40 93z" />
    <glyph glyph-name="igrave" unicode="&#xec;" horiz-adv-x="524" 
d="M-102 1528l204 149l344 -381l-155 -102zM141 0v1034h242v-1034h-242z" />
    <glyph glyph-name="iacute" unicode="&#xed;" horiz-adv-x="524" 
d="M82 1296l344 381l205 -149l-393 -334zM141 0v1034h242v-1034h-242z" />
    <glyph glyph-name="icircumflex" unicode="&#xee;" horiz-adv-x="524" 
d="M-119 1317l385 278l381 -278l-127 -146l-256 191l-252 -191zM141 0v1034h242v-1034h-242z" />
    <glyph glyph-name="idieresis" unicode="&#xef;" horiz-adv-x="524" 
d="M-125 1323q0 56 40.5 94.5t98.5 38.5q62 0 104 -38t42 -95q0 -54 -42.5 -92.5t-103.5 -38.5q-57 0 -98 38.5t-41 92.5zM141 0v1034h242v-1034h-242zM369 1323q0 57 39.5 95t99.5 38q65 0 104 -37.5t39 -95.5q0 -56 -39.5 -93.5t-103.5 -37.5q-59 0 -99 38t-40 93z" />
    <glyph glyph-name="eth" unicode="&#xf0;" horiz-adv-x="1259" 
d="M74 492q0 108 45 207t118 168.5t166.5 111t188.5 41.5q149 0 260 -94q-40 105 -186 299l-168 -101l-101 140l160 94q-192 223 -348 321h332q96 -90 202 -211l238 140l86 -146l-215 -127q140 -185 229.5 -400t89.5 -403q0 -248 -153 -405.5t-393 -157.5q-122 0 -226.5 44
t-175 117t-110 167t-39.5 195zM324 496q0 -84 33 -156.5t103 -121t163 -48.5q129 0 214 88t85 227q0 138 -84 236t-222 98q-70 0 -127 -28t-92.5 -74.5t-54 -103t-18.5 -117.5z" />
    <glyph glyph-name="ntilde" unicode="&#xf1;" horiz-adv-x="1181" 
d="M133 0v1034h242v-106q56 51 141 93t191 42q172 0 260 -90.5t88 -282.5v-690h-242v563q0 148 -41.5 217.5t-159.5 69.5q-68 0 -137.5 -39.5t-99.5 -79.5v-731h-242zM145 1341q62 56 149 108t157 52q45 0 92 -26t90.5 -52t77.5 -26q50 0 102 38t90 81l101 -162
q-160 -160 -285 -160q-50 0 -100 25t-94 50t-81 25q-19 0 -38 -5.5t-39.5 -18.5t-33 -22t-36.5 -29t-33 -27z" />
    <glyph glyph-name="ograve" unicode="&#xf2;" horiz-adv-x="1263" 
d="M74 514q0 113 43.5 214.5t118 175t179.5 116.5t222 43q153 0 280.5 -74t200 -200t72.5 -275q0 -148 -74 -273t-202.5 -198.5t-282.5 -73.5t-282 72.5t-201.5 198t-73.5 274.5zM272 1528l205 149l344 -381l-155 -102zM324 508q0 -146 91 -242t214 -96q139 0 222 93t83 251
q0 152 -86.5 249t-212.5 97q-135 0 -223 -97t-88 -255z" />
    <glyph glyph-name="oacute" unicode="&#xf3;" horiz-adv-x="1263" 
d="M74 514q0 113 43.5 214.5t118 175t179.5 116.5t222 43q153 0 280.5 -74t200 -200t72.5 -275q0 -148 -74 -273t-202.5 -198.5t-282.5 -73.5t-282 72.5t-201.5 198t-73.5 274.5zM324 508q0 -146 91 -242t214 -96q139 0 222 93t83 251q0 152 -86.5 249t-212.5 97
q-135 0 -223 -97t-88 -255zM412 1296l344 381l205 -149l-394 -334z" />
    <glyph glyph-name="ocircumflex" unicode="&#xf4;" horiz-adv-x="1263" 
d="M74 514q0 113 43.5 214.5t118 175t179.5 116.5t222 43q153 0 280.5 -74t200 -200t72.5 -275q0 -148 -74 -273t-202.5 -198.5t-282.5 -73.5t-282 72.5t-201.5 198t-73.5 274.5zM250 1296l385 279l381 -279l-127 -145l-256 190l-252 -190zM324 508q0 -146 91 -242t214 -96
q139 0 222 93t83 251q0 152 -86.5 249t-212.5 97q-135 0 -223 -97t-88 -255z" />
    <glyph glyph-name="otilde" unicode="&#xf5;" horiz-adv-x="1263" 
d="M74 514q0 113 43.5 214.5t118 175t179.5 116.5t222 43q153 0 280.5 -74t200 -200t72.5 -275q0 -148 -74 -273t-202.5 -198.5t-282.5 -73.5t-282 72.5t-201.5 198t-73.5 274.5zM203 1341q63 56 149 108t156 52q45 0 92 -26t90.5 -52t77.5 -26q50 0 102.5 38t90.5 81
l100 -162q-160 -160 -285 -160q-50 0 -99.5 25t-93.5 50t-81 25q-19 0 -38 -5.5t-39.5 -18.5t-33 -22t-36.5 -29t-33 -27zM324 508q0 -146 91 -242t214 -96q139 0 222 93t83 251q0 152 -86.5 249t-212.5 97q-135 0 -223 -97t-88 -255z" />
    <glyph glyph-name="odieresis" unicode="&#xf6;" horiz-adv-x="1263" 
d="M74 514q0 113 43.5 214.5t118 175t179.5 116.5t222 43q153 0 280.5 -74t200 -200t72.5 -275q0 -148 -74 -273t-202.5 -198.5t-282.5 -73.5t-282 72.5t-201.5 198t-73.5 274.5zM244 1337q0 56 40.5 94.5t98.5 38.5q62 0 103.5 -38t41.5 -95q0 -54 -42 -92.5t-103 -38.5
q-57 0 -98 38.5t-41 92.5zM324 508q0 -146 91 -242t214 -96q139 0 222 93t83 251q0 152 -86.5 249t-212.5 97q-135 0 -223 -97t-88 -255zM737 1337q0 57 40 95t100 38q65 0 104 -37.5t39 -95.5q0 -56 -39.5 -93.5t-103.5 -37.5q-59 0 -99.5 38t-40.5 93z" />
    <glyph glyph-name="divide" unicode="&#xf7;" horiz-adv-x="1429" 
d="M129 643v203h1171v-203h-1171zM580 322q0 54 39.5 92.5t95.5 38.5q63 0 102 -38t39 -93q0 -56 -39 -95t-102 -39q-55 0 -95 40t-40 94zM580 1139q0 55 39.5 94t95.5 39q65 0 103 -38t38 -95q0 -53 -39 -90t-102 -37q-55 0 -95 38t-40 89z" />
    <glyph glyph-name="oslash" unicode="&#xf8;" horiz-adv-x="1263" 
d="M74 506q0 113 43.5 214.5t118 175t179.5 116.5t222 43q61 0 131 -17l131 271l191 -78l-136 -275q109 -76 172.5 -195t63.5 -255q0 -148 -74 -273t-202.5 -198.5t-282.5 -73.5q-68 0 -150 21l-137 -283l-184 70l141 294q-106 75 -166.5 191t-60.5 252zM324 500
q0 -138 77 -228l277 576q-28 4 -43 4q-135 0 -223 -97t-88 -255zM571 168q27 -6 58 -6q139 0 222 93t83 251q0 142 -80 242z" />
    <glyph glyph-name="ugrave" unicode="&#xf9;" horiz-adv-x="1179" 
d="M125 371v663h242v-604q0 -260 247 -260q119 0 193 55v809h242v-921q-168 -144 -459 -144q-211 0 -338 103.5t-127 298.5zM242 1528l204 149l345 -381l-156 -102z" />
    <glyph glyph-name="uacute" unicode="&#xfa;" horiz-adv-x="1179" 
d="M125 371v663h242v-604q0 -260 247 -260q119 0 193 55v809h242v-921q-168 -144 -459 -144q-211 0 -338 103.5t-127 298.5zM457 1296l344 381l205 -149l-394 -334z" />
    <glyph glyph-name="ucircumflex" unicode="&#xfb;" horiz-adv-x="1179" 
d="M125 371v663h242v-604q0 -260 247 -260q119 0 193 55v809h242v-921q-168 -144 -459 -144q-211 0 -338 103.5t-127 298.5zM209 1317l385 278l381 -278l-127 -146l-256 191l-252 -191z" />
    <glyph glyph-name="udieresis" unicode="&#xfc;" horiz-adv-x="1179" 
d="M125 371v663h242v-604q0 -260 247 -260q119 0 193 55v809h242v-921q-168 -144 -459 -144q-211 0 -338 103.5t-127 298.5zM203 1323q0 56 40.5 94.5t98.5 38.5q62 0 103.5 -38t41.5 -95q0 -54 -42 -92.5t-103 -38.5q-57 0 -98 38.5t-41 92.5zM696 1323q0 57 40 95t100 38
q65 0 104 -37.5t39 -95.5q0 -56 -39.5 -93.5t-103.5 -37.5q-59 0 -99.5 38t-40.5 93z" />
    <glyph glyph-name="yacute" unicode="&#xfd;" horiz-adv-x="1144" 
d="M-4 1034h268l305 -653l305 653h279l-813 -1558h-272l364 657zM422 1296l344 381l205 -149l-393 -334z" />
    <glyph glyph-name="thorn" unicode="&#xfe;" horiz-adv-x="1228" 
d="M133 -522v2201h242v-643q88 27 217 27q111 0 210.5 -34.5t178.5 -100.5t125.5 -172t46.5 -238q0 -86 -21 -166.5t-64 -150t-102.5 -121.5t-141.5 -81.5t-177 -29.5q-66 0 -142.5 29.5t-129.5 71.5v-592h-242zM375 287q39 -52 111 -83.5t147 -31.5q111 0 188.5 95.5
t77.5 248.5q0 151 -88.5 247.5t-239.5 96.5q-55 0 -110 -13t-86 -36v-524z" />
    <glyph glyph-name="ydieresis" unicode="&#xff;" horiz-adv-x="1144" 
d="M-4 1034h268l305 -653l305 653h279l-813 -1558h-272l364 657zM184 1323q0 56 41 94.5t99 38.5q62 0 103.5 -38t41.5 -95q0 -54 -42 -92.5t-103 -38.5q-57 0 -98.5 38.5t-41.5 92.5zM678 1323q0 57 39.5 95t99.5 38q65 0 104.5 -37.5t39.5 -95.5q0 -55 -40 -93t-104 -38
q-59 0 -99 38t-40 93z" />
    <glyph glyph-name="OE" unicode="&#x152;" horiz-adv-x="2537" 
d="M86 774q0 164 66.5 313.5t179.5 259t270 174t330 64.5q160 0 308.5 -64t254.5 -192v219h897v-237h-635v-369h512v-237h-512v-465h701v-238h-963v225q-212 -262 -563 -262q-231 0 -426 109.5t-307.5 295.5t-112.5 404zM365 782q0 -112 44 -218.5t118 -186t177 -128
t214 -48.5q119 0 226 44.5t183.5 120.5t121 181.5t44.5 222.5q0 162 -76.5 295.5t-205 208t-279.5 74.5q-154 0 -284 -74.5t-206.5 -205t-76.5 -286.5z" />
    <glyph glyph-name="oe" unicode="&#x153;" horiz-adv-x="2054" 
d="M74 514q0 113 43.5 214.5t118 175t179.5 116.5t222 43q125 0 234 -50.5t186 -140.5q72 91 179.5 141t240.5 50q122 0 219.5 -43.5t158.5 -118t93 -170.5t32 -205v-100h-794q11 -107 106 -181.5t256 -74.5q181 0 320 109l76 -173q-54 -48 -172.5 -92.5t-264.5 -44.5
q-144 0 -260 49t-192 140q-78 -88 -188.5 -138.5t-235.5 -50.5q-154 0 -282 72.5t-201.5 198t-73.5 274.5zM324 508q0 -146 91 -242t214 -96q139 0 222 93t83 251q0 152 -86.5 249t-212.5 97q-135 0 -223 -97t-88 -255zM1188 621h541q-5 107 -73 179t-183 72
q-110 0 -191 -67t-94 -184z" />
    <glyph glyph-name="Ydieresis" unicode="&#x178;" horiz-adv-x="1337" 
d="M-31 1550h293l397 -657q11 -19 13 -55q2 33 16 55l397 657h291l-577 -909v-641h-262v641zM-6 1808q0 57 41 95.5t98 38.5q62 0 104 -38.5t42 -95.5q0 -54 -42.5 -92.5t-103.5 -38.5q-57 0 -98 38.5t-41 92.5zM1061 1808q0 57 39.5 95.5t99.5 38.5q65 0 104 -38t39 -96
q0 -56 -39.5 -93.5t-103.5 -37.5q-59 0 -99 38t-40 93z" />
    <glyph glyph-name="circumflex" unicode="&#x2c6;" horiz-adv-x="970" 
d="M102 1317l385 278l381 -278l-127 -146l-256 191l-252 -191z" />
    <glyph glyph-name="tilde" unicode="&#x2dc;" horiz-adv-x="1062" 
d="M102 1341q62 56 149 108t157 52q45 0 92 -26t90.5 -52t77.5 -26q50 0 102 38t90 81l101 -162q-160 -160 -285 -160q-50 0 -100 25t-94 50t-81 25q-19 0 -38 -5.5t-39.5 -18.5t-33 -22t-36.5 -29t-33 -27z" />
    <glyph glyph-name="uni2000" unicode="&#x2000;" horiz-adv-x="1069" 
 />
    <glyph glyph-name="uni2001" unicode="&#x2001;" horiz-adv-x="2138" 
 />
    <glyph glyph-name="uni2002" unicode="&#x2002;" horiz-adv-x="1069" 
 />
    <glyph glyph-name="uni2003" unicode="&#x2003;" horiz-adv-x="2138" 
 />
    <glyph glyph-name="uni2004" unicode="&#x2004;" horiz-adv-x="712" 
 />
    <glyph glyph-name="uni2005" unicode="&#x2005;" horiz-adv-x="534" 
 />
    <glyph glyph-name="uni2006" unicode="&#x2006;" horiz-adv-x="356" 
 />
    <glyph glyph-name="uni2007" unicode="&#x2007;" horiz-adv-x="356" 
 />
    <glyph glyph-name="uni2008" unicode="&#x2008;" horiz-adv-x="267" 
 />
    <glyph glyph-name="uni2009" unicode="&#x2009;" horiz-adv-x="427" 
 />
    <glyph glyph-name="uni200A" unicode="&#x200a;" horiz-adv-x="118" 
 />
    <glyph glyph-name="uni2010" unicode="&#x2010;" horiz-adv-x="878" 
d="M135 401l27 201h581l-26 -201h-582z" />
    <glyph glyph-name="uni2011" unicode="&#x2011;" horiz-adv-x="878" 
d="M135 401l27 201h581l-26 -201h-582z" />
    <glyph glyph-name="figuredash" unicode="&#x2012;" horiz-adv-x="878" 
d="M135 401l27 201h581l-26 -201h-582z" />
    <glyph glyph-name="endash" unicode="&#x2013;" horiz-adv-x="1294" 
d="M135 401l45 201h979l-44 -201h-980z" />
    <glyph glyph-name="emdash" unicode="&#x2014;" horiz-adv-x="1918" 
d="M135 401l33 201h1614l-31 -201h-1616z" />
    <glyph glyph-name="quoteleft" unicode="&#x2018;" horiz-adv-x="569" 
d="M80 1075l256 475h168l-166 -475h-258z" />
    <glyph glyph-name="quoteright" unicode="&#x2019;" horiz-adv-x="557" 
d="M90 1075l164 475h258l-254 -475h-168z" />
    <glyph glyph-name="quotesinglbase" unicode="&#x201a;" horiz-adv-x="544" 
d="M16 -231l164 475h258l-254 -475h-168z" />
    <glyph glyph-name="quotedblleft" unicode="&#x201c;" horiz-adv-x="935" 
d="M80 1075l256 475h168l-195 -475h-229zM487 1075l211 475h168l-151 -475h-228z" />
    <glyph glyph-name="quotedblright" unicode="&#x201d;" horiz-adv-x="923" 
d="M92 1075l150 475h229l-211 -475h-168zM455 1075l194 475h230l-256 -475h-168z" />
    <glyph glyph-name="quotedblbase" unicode="&#x201e;" horiz-adv-x="929" 
d="M29 -229l149 475h230l-211 -475h-168zM391 -229l195 475h229l-256 -475h-168z" />
    <glyph glyph-name="bullet" unicode="&#x2022;" horiz-adv-x="878" 
d="M125 621q0 131 92.5 223t222.5 92q129 0 221.5 -92.5t92.5 -222.5t-92.5 -222t-221.5 -92q-131 0 -223 92t-92 222z" />
    <glyph glyph-name="ellipsis" unicode="&#x2026;" horiz-adv-x="1574" 
d="M109 123q0 63 44.5 107t106.5 44q65 0 108.5 -43.5t43.5 -107.5q0 -58 -44 -105t-108 -47q-60 0 -105.5 47.5t-45.5 104.5zM635 123q0 63 44.5 107t106.5 44q65 0 108.5 -43.5t43.5 -107.5q0 -58 -44 -105t-108 -47q-60 0 -105.5 47.5t-45.5 104.5zM1161 123q0 63 45 107
t107 44q65 0 108 -43.5t43 -107.5q0 -58 -43.5 -105t-107.5 -47q-60 0 -106 47.5t-46 104.5z" />
    <glyph glyph-name="uni202F" unicode="&#x202f;" horiz-adv-x="427" 
 />
    <glyph glyph-name="guilsinglleft" unicode="&#x2039;" horiz-adv-x="724" 
d="M82 487l295 435h256l-318 -437l326 -432h-258z" />
    <glyph glyph-name="guilsinglright" unicode="&#x203a;" horiz-adv-x="724" 
d="M84 51l326 432l-318 437h256l295 -433l-301 -436h-258z" />
    <glyph glyph-name="uni205F" unicode="&#x205f;" horiz-adv-x="534" 
 />
    <glyph glyph-name="Euro" unicode="&#x20ac;" horiz-adv-x="1480" 
d="M96 502l41 188h144q-2 18 -2 58q0 65 2 98h-162l43 186h149q29 114 81.5 207.5t131 166t190.5 113t249 40.5q226 0 411 -117l-110 -176q-25 12 -66.5 27.5t-115.5 32.5t-136 17q-131 0 -235.5 -80t-155.5 -231h571l-39 -186h-571q-2 -29 -2 -86q0 -47 2 -70h584l-41 -188
h-500q52 -142 158 -231t266 -89q137 0 297 80l92 -196q-19 -13 -59 -31t-136 -41t-196 -23q-77 0 -155 16.5t-160 56.5t-151 99t-125.5 151.5t-84.5 207.5h-209z" />
    <glyph glyph-name="trademark" unicode="&#x2122;" horiz-adv-x="2123" 
d="M141 1346v206h758v-206h-266v-588h-225v588h-267zM954 758l142 817l377 -490l374 488l146 -815h-228l-53 360l-242 -391l-241 389l-47 -358h-228z" />
    <glyph glyph-name="uni25FC" unicode="&#x25fc;" horiz-adv-x="1034" 
d="M0 0v1034h1034v-1034h-1034z" />
    <glyph glyph-name="uniFB01" unicode="&#xfb01;" horiz-adv-x="1288" 
d="M49 836v196h174v232q0 204 94 315q54 62 137.5 92.5t174.5 30.5q127 0 235 -53l-94 -183q-60 31 -127 31q-180 0 -180 -229v-236h260v-196h-260v-836h-240v836h-174zM872 1327q0 69 44 112.5t112 43.5t111 -44t43 -112q0 -69 -44 -112.5t-112 -43.5q-66 0 -110 43.5
t-44 112.5zM903 0v1034h242v-1034h-242z" />
    <glyph glyph-name="uniFB02" unicode="&#xfb02;" horiz-adv-x="1277" 
d="M49 836v196h174v201q0 204 94 315q54 62 137.5 92.5t174.5 30.5q96 0 202 -39l-61 -196q-58 30 -127 30q-180 0 -180 -229v-205h260v-196h-260v-836h-240v836h-174zM899 0v1679h242v-1679h-242z" />
    <glyph glyph-name="uniFB03" unicode="&#xfb03;" horiz-adv-x="2052" 
d="M49 836v196h174v148q0 204 94 315q54 62 137.5 92.5t174.5 30.5q68 0 133.5 -17t96 -32t44.5 -25l-94 -186q-79 55 -168 55t-133.5 -59.5t-44.5 -169.5v-152h260v-196h-260v-836h-240v836h-174zM811 836v196h174v242q0 204 94 315q54 62 137.5 92.5t174.5 30.5
q127 0 235 -53l-94 -182q-58 30 -127 30q-180 0 -180 -229v-246h260v-196h-260v-836h-240v836h-174zM1636 1327q0 69 44 112.5t112 43.5t111 -44t43 -112q0 -69 -44 -112.5t-112 -43.5q-66 0 -110 43.5t-44 112.5zM1667 0v1034h242v-1034h-242z" />
    <glyph glyph-name="uniFB04" unicode="&#xfb04;" horiz-adv-x="2039" 
d="M49 836v196h174v137q0 205 94 316q54 62 137.5 92.5t174.5 30.5q68 0 133.5 -17t96 -32t44.5 -25l-94 -186q-79 55 -168 55t-133.5 -59.5t-44.5 -169.5v-142h260v-196h-260v-836h-240v836h-174zM811 836v196h174v211q0 205 94 316q54 62 137 92t175 30q96 0 202 -39
l-61 -196q-60 31 -127 31q-180 0 -180 -230v-215h260v-196h-260v-836h-240v836h-174zM1661 0v1679h242v-1679h-242z" />
  </font>
</defs>
</svg>
